<svg xmlns="http://www.w3.org/2000/svg" viewBox="0 0 500 500"><g id="freepik--Floor--inject-8"><path id="freepik--floor--inject-8" d="M77.66,241.71c-95.18,55-95.17,144,0,199s249.49,55,344.67,0,95.17-144,0-199S172.84,186.76,77.66,241.71Z" style="fill:#fafafa"></path></g><g id="freepik--Shadows--inject-8"><path id="freepik--Shadow--inject-8" d="M288.06,361.82A24.92,24.92,0,0,0,282,363.7c-3.31,1.57-6.74,4.52-5.09,7.28,1.92,3.21,8.74,4.18,12.83,6,5.5,2.48.44,5-.63,7.85-1.64,4.29,6.94,8.68,17.43,10.55,6.68,1.19,13.63,1.57,20.44,2.38,2.56.31,5.74.34,8.06,1a20.55,20.55,0,0,1,6.27,3.65c4.31,3.21,7.5,5.87,14,7.5a63.33,63.33,0,0,0,19.64,1.54,36.75,36.75,0,0,0,14.71-4.89,34.52,34.52,0,0,1,14.65-5.26c14.79-1.76,30.63-3,37-8.83,5.8-5.38-2.13-10.53-15.84-13.18-12.65-2.45-29.55-1.78-40.39-5.47-13.42-4.56-8.27-14.82-34.1-14A124.68,124.68,0,0,0,336.41,361a86.43,86.43,0,0,1-24.24.63C304.3,360.91,295.17,360.49,288.06,361.82Z" style="fill:#e0e0e0"></path><path id="freepik--shadow--inject-8" d="M200.22,400.7c19.51,11.39,19.51,29.86,0,41.25s-51.15,11.4-70.66,0-19.51-29.86,0-41.25S180.7,389.31,200.22,400.7Z" style="fill:#e0e0e0"></path><path id="freepik--shadow--inject-8" d="M97,374.82c12.67,7.4,12.67,19.39,0,26.79s-33.23,7.4-45.9,0-12.67-19.39,0-26.79S84.29,367.42,97,374.82Z" style="fill:#e0e0e0"></path></g><g id="freepik--Factory--inject-8"><g id="freepik--factory--inject-8"><g id="freepik--warehouse-2--inject-8"><g id="freepik--Wall--inject-8"><polygon points="439.35 328.68 439.35 251.53 327.86 187.16 327.86 264.38 439.35 328.68" style="fill:#37474f"></polygon><path d="M411.47,240.76h0v14.71l19.32,11.16V251.92Z" style="fill:#455a64"></path></g><g id="freepik--wall--inject-8"><polygon points="439.35 328.68 468.02 312.13 468.02 234.98 439.35 251.53 439.35 328.68" style="fill:#263238"></polygon></g><path d="M455.28,264.2h0l9.55-5.52V242l-9.55,5.51Zm-12.74,7.36h0L452.1,266V249.3l-9.56,5.52Z" style="fill:#455a64"></path><path d="M411.47,262.15h0v14.71L430.79,288V273.31Z" style="fill:#455a64"></path><path d="M455.28,285.58h0l9.55-5.51V263.33l-9.55,5.52Zm-12.74,7.36h0l9.56-5.52V270.69l-9.56,5.52Z" style="fill:#455a64"></path><g id="freepik--Roof--inject-8"><g id="freepik--shadow--inject-8" style="opacity:0.1"><polygon points="329.27 184.14 327.86 184.95 327.86 188.78 439.35 253.15 468.02 236.6 468.02 234.05 465.51 232.6 463.3 233.87 465.81 235.32 439.35 250.6 328.97 186.87 328.97 186.87 331.48 185.42 329.27 184.14"></polygon></g><g id="freepik--roof--inject-8"><polyline points="355.42 167.42 355.42 169.97 463.6 232.42 465.81 231.15 355.42 167.42" style="fill:#263238"></polyline><polyline points="439.35 248.97 324.54 182.69 324.54 185.25 439.35 251.53 439.35 248.97" style="fill:#263238"></polyline><path d="M357.63,166.14l-2.21-1.28-30.88,17.83L439.35,249l30.88-17.82Zm81.72,80.28L329,182.69h0l26.45-15.27,110.39,63.73Z" style="fill:#455a64"></path><polygon points="470.23 231.15 470.23 233.7 439.35 251.53 439.35 248.97 470.23 231.15" style="fill:#37474f"></polygon><polygon points="355.42 167.42 355.42 169.97 331.18 183.97 328.97 182.69 355.42 167.42" style="fill:#37474f"></polygon><polygon points="355.42 169.97 463.6 232.42 439.35 246.42 331.18 183.97 355.42 169.97" style="fill:#455a64"></polygon><g style="opacity:0.1"><polygon points="461.81 233.44 353.06 171.33 355.42 167.42 465.81 231.14 461.81 233.44"></polygon></g></g></g><g id="freepik--Pipes--inject-8"><g id="freepik--Pipe--inject-8"><polygon points="359.72 198.19 359.72 178.08 378.83 167.04 378.83 187.16 359.72 198.19" style="fill:#263238"></polygon><polygon points="359.72 198.19 359.72 178.08 340.6 167.04 340.6 187.16 359.72 198.19" style="fill:#37474f"></polygon><polygon points="378.83 167.04 359.71 156.01 340.6 167.04 359.72 178.08 378.83 167.04" style="fill:#455a64"></polygon><polygon points="359.72 176.42 359.72 172.45 375.64 163.25 375.64 167.22 359.72 176.42" style="fill:#263238"></polygon><polygon points="359.72 176.42 359.72 172.45 343.79 163.25 343.79 167.22 359.72 176.42" style="fill:#37474f"></polygon><polygon points="375.64 163.25 359.71 154.06 343.79 163.25 359.72 172.45 375.64 163.25" style="fill:#455a64"></polygon><g id="freepik--pipe--inject-8"><path d="M369.27,163.2,367.82,96c0-1.2-.79-2.4-2.38-3.31a12.63,12.63,0,0,0-11.45,0c-1.58.91-2.38,2.11-2.38,3.31h0l-1.45,67.2h0c0,1.43.91,2.86,2.8,4a14.89,14.89,0,0,0,13.51,0c1.89-1.09,2.82-2.52,2.8-4Z" style="fill:#37474f"></path><g style="opacity:0.30000000000000004"><path d="M353.09,93.32l-1.82,72.51a7.09,7.09,0,0,0,1.69,1.32,9.15,9.15,0,0,0,.94.47l.77-75.28c-.24.11-.47.23-.68.35A6.46,6.46,0,0,0,353.09,93.32Z" style="fill:#fff"></path></g><g style="opacity:0.15"><path d="M369,151.92l-.09-3.38h0l-.36-27.14h0l-.12-4.62h0L367.82,96a1.84,1.84,0,0,0,0-.41,4.28,4.28,0,0,0-2.34-2.9,8.91,8.91,0,0,0-1.69-.74l0,1.1a14.73,14.73,0,0,0-4-.55A13.22,13.22,0,0,0,353.28,94a7.19,7.19,0,0,0-1.54,1.15,2.87,2.87,0,0,0-.13.82l-.2,7.53a6.81,6.81,0,0,0,1.87,1.5,13.22,13.22,0,0,0,6.44,1.53,14.91,14.91,0,0,0,4.31-.62l.3,14.4a14.12,14.12,0,0,1-10.8-.7,4.71,4.71,0,0,1-2.48-2.87l-.13,4.63a7.37,7.37,0,0,0,2,1.61,14,14,0,0,0,6.79,1.61,15.61,15.61,0,0,0,4.68-.7l.3,28.32a14.94,14.94,0,0,1-11.52-.71,5,5,0,0,1-2.62-3l-.13,4.64a7.67,7.67,0,0,0,2.15,1.75,14.74,14.74,0,0,0,7.14,1.68,16.1,16.1,0,0,0,5-.78l.24,12a9.34,9.34,0,0,0,1.46-.69c1.89-1.09,2.82-2.52,2.8-4h0Z"></path></g><path d="M369.48,113.77v2.36a4.51,4.51,0,0,1-1,2.81,7.19,7.19,0,0,1-2.08,1.71,14.48,14.48,0,0,1-13.31,0,7.14,7.14,0,0,1-2.07-1.71,4.47,4.47,0,0,1-1-2.81v-2.36a4.57,4.57,0,0,1,1.26-3.07l-.07,2.84v.23c0,1.28.84,2.55,2.52,3.51a13.39,13.39,0,0,0,12.14,0c1.66-1,2.5-2.21,2.51-3.47v-.28l-.08-2.83A4.57,4.57,0,0,1,369.48,113.77Z" style="fill:#37474f"></path><path d="M369.48,113.77a4.48,4.48,0,0,1-1.1,2.89,7.26,7.26,0,0,1-2,1.64,14.56,14.56,0,0,1-13.31,0,7.12,7.12,0,0,1-2-1.64,4.48,4.48,0,0,1-1.1-2.89,4.57,4.57,0,0,1,1.26-3.07l-.07,2.84v.23c0,1.28.84,2.55,2.52,3.51a13.39,13.39,0,0,0,12.14,0c1.66-1,2.5-2.21,2.51-3.47v-.28l-.08-2.83A4.57,4.57,0,0,1,369.48,113.77Z" style="fill:#BA68C8"></path><path d="M370,145.47v2.35a4.61,4.61,0,0,1-1,2.87,7.5,7.5,0,0,1-2.21,1.86,15.36,15.36,0,0,1-14,0,7.65,7.65,0,0,1-2.21-1.86,4.61,4.61,0,0,1-1-2.87v-2.35a4.76,4.76,0,0,1,1.26-3.14l-.08,2.89v.25c0,1.34.89,2.68,2.66,3.7a14.15,14.15,0,0,0,12.83,0c1.74-1,2.63-2.31,2.66-3.63v-.35l-.07-2.86A4.7,4.7,0,0,1,370,145.47Z" style="fill:#37474f"></path><path d="M370,145.47a4.63,4.63,0,0,1-1.1,2.94,7.57,7.57,0,0,1-2.15,1.78,15.28,15.28,0,0,1-14,0,7.52,7.52,0,0,1-2.14-1.78,4.58,4.58,0,0,1-1.1-2.94,4.76,4.76,0,0,1,1.26-3.14l-.08,2.89v.25c0,1.34.89,2.68,2.66,3.7a14.15,14.15,0,0,0,12.83,0c1.74-1,2.63-2.31,2.66-3.63v-.35l-.07-2.86A4.7,4.7,0,0,1,370,145.47Z" style="fill:#BA68C8"></path><path d="M369,96c0-1.69-1.05-3.23-3-4.33a13.8,13.8,0,0,0-12.63,0c-1.91,1.1-3,2.64-3,4.33v2.35c0,1.69,1.05,3.23,3,4.33a13.8,13.8,0,0,0,12.63,0c1.91-1.1,3-2.64,3-4.33Z" style="fill:#37474f"></path><path d="M359.72,101.85a12.79,12.79,0,0,1-6.32-1.53c-1.91-1.1-3-2.63-3-4.32s1.05-3.23,3-4.33a13.8,13.8,0,0,1,12.63,0c1.91,1.1,3,2.64,3,4.33s-1.05,3.22-3,4.32A12.76,12.76,0,0,1,359.72,101.85Z" style="fill:#455a64"></path><path d="M354,99.31a12.69,12.69,0,0,0,11.45,0c3.17-1.83,3.17-4.79,0-6.62a12.63,12.63,0,0,0-11.45,0C350.82,94.52,350.82,97.48,354,99.31Z" style="fill:#263238"></path><path d="M357.89,91.45a10.71,10.71,0,0,0-3.9,1.24c-3.17,1.83-3.17,4.79,0,6.62a10.71,10.71,0,0,0,3.9,1.24Z"></path><g style="opacity:0.1"><path d="M362.35,100.42a10.59,10.59,0,0,0,3-1.07v-6.7a10.3,10.3,0,0,0-3-1.07Z" style="fill:#fff"></path></g></g></g><g id="freepik--pipe--inject-8"><polygon points="388.39 214.75 388.39 194.63 407.5 183.59 407.5 203.71 388.39 214.75" style="fill:#263238"></polygon><polygon points="388.39 214.75 388.39 194.63 369.27 183.59 369.27 203.71 388.39 214.75" style="fill:#37474f"></polygon><polygon points="407.5 183.59 388.38 172.56 369.27 183.59 388.39 194.63 407.5 183.59" style="fill:#455a64"></polygon><polygon points="388.39 192.97 388.39 189 404.31 179.8 404.31 183.77 388.39 192.97" style="fill:#263238"></polygon><polygon points="388.39 192.97 388.39 189 372.46 179.8 372.46 183.77 388.39 192.97" style="fill:#37474f"></polygon><polygon points="404.31 179.8 388.38 170.61 372.46 179.8 388.39 189 404.31 179.8" style="fill:#455a64"></polygon><g id="freepik--pipe--inject-8"><path d="M397.94,179.75l-1.45-67.2c0-1.2-.79-2.39-2.38-3.31a12.69,12.69,0,0,0-11.45,0c-1.59.92-2.38,2.11-2.38,3.31h0l-1.45,67.2h0c0,1.43.91,2.86,2.8,3.95a14.89,14.89,0,0,0,13.51,0c1.89-1.09,2.82-2.52,2.8-3.95Z" style="fill:#37474f"></path><g style="opacity:0.30000000000000004"><path d="M381.76,109.87l-1.82,72.51a7.09,7.09,0,0,0,1.69,1.32,7.49,7.49,0,0,0,.94.47l.77-75.28c-.24.11-.47.23-.68.35A6.46,6.46,0,0,0,381.76,109.87Z" style="fill:#fff"></path></g><g style="opacity:0.15"><path d="M397.63,168.47l-.09-3.38h0L397.18,138h0l-.13-4.62h0l-.56-20.79a1.9,1.9,0,0,0,0-.41,4.28,4.28,0,0,0-2.34-2.9,8.91,8.91,0,0,0-1.69-.74l0,1.1a15.12,15.12,0,0,0-4.05-.55,13.22,13.22,0,0,0-6.44,1.53,7.19,7.19,0,0,0-1.54,1.15,2.92,2.92,0,0,0-.13.82l-.2,7.54a7.2,7.2,0,0,0,1.87,1.5,13.33,13.33,0,0,0,6.44,1.52,14.58,14.58,0,0,0,4.31-.62l.3,14.4a14.12,14.12,0,0,1-10.8-.7,4.68,4.68,0,0,1-2.48-2.87l-.13,4.63a7.37,7.37,0,0,0,2,1.61,14,14,0,0,0,6.79,1.61,15.3,15.3,0,0,0,4.68-.7l.29,28.32a14.92,14.92,0,0,1-11.51-.71,5,5,0,0,1-2.62-3l-.13,4.65a7.83,7.83,0,0,0,2.15,1.74,14.72,14.72,0,0,0,7.14,1.69,16.39,16.39,0,0,0,5.05-.78l.24,12a9.37,9.37,0,0,0,1.46-.7c1.89-1.09,2.82-2.52,2.8-3.95h0Z"></path></g><path d="M398.15,130.33v2.35a4.47,4.47,0,0,1-1,2.81A7.14,7.14,0,0,1,395,137.2a14.48,14.48,0,0,1-13.31,0,7.14,7.14,0,0,1-2.07-1.71,4.47,4.47,0,0,1-1-2.81v-2.35a4.58,4.58,0,0,1,1.26-3.08l-.07,2.84v.24c0,1.27.84,2.54,2.52,3.5a13.39,13.39,0,0,0,12.14,0c1.66-1,2.5-2.21,2.51-3.47v-.28l-.08-2.83A4.58,4.58,0,0,1,398.15,130.33Z" style="fill:#37474f"></path><path d="M398.15,130.33a4.48,4.48,0,0,1-1.1,2.88,7.26,7.26,0,0,1-2,1.64,14.56,14.56,0,0,1-13.31,0,7.12,7.12,0,0,1-2-1.64,4.48,4.48,0,0,1-1.1-2.88,4.58,4.58,0,0,1,1.26-3.08l-.07,2.84v.24c0,1.27.84,2.54,2.52,3.5a13.39,13.39,0,0,0,12.14,0c1.66-1,2.5-2.21,2.51-3.47v-.28l-.08-2.83A4.58,4.58,0,0,1,398.15,130.33Z" style="fill:#BA68C8"></path><path d="M398.64,162v2.36a4.63,4.63,0,0,1-1,2.87,7.6,7.6,0,0,1-2.21,1.85,15.36,15.36,0,0,1-14,0,7.5,7.5,0,0,1-2.21-1.86,4.59,4.59,0,0,1-1-2.86V162a4.72,4.72,0,0,1,1.26-3.13l-.08,2.88V162c0,1.34.89,2.69,2.66,3.71a14.21,14.21,0,0,0,12.83,0c1.74-1,2.63-2.32,2.66-3.64v-.35l-.07-2.86A4.7,4.7,0,0,1,398.64,162Z" style="fill:#37474f"></path><path d="M398.64,162a4.63,4.63,0,0,1-1.1,2.94,7.71,7.71,0,0,1-2.15,1.78,15.28,15.28,0,0,1-14,0,7.71,7.71,0,0,1-2.15-1.78,4.62,4.62,0,0,1-1.09-2.94,4.72,4.72,0,0,1,1.26-3.13l-.08,2.88V162c0,1.34.89,2.69,2.66,3.71a14.21,14.21,0,0,0,12.83,0c1.74-1,2.63-2.32,2.66-3.64v-.35l-.07-2.86A4.7,4.7,0,0,1,398.64,162Z" style="fill:#BA68C8"></path><path d="M397.66,112.55c0-1.69-1.05-3.22-3-4.33a13.88,13.88,0,0,0-12.63,0c-1.91,1.11-3,2.64-3,4.33v2.36c0,1.68,1.05,3.22,3,4.32a13.8,13.8,0,0,0,12.63,0c1.91-1.1,3-2.64,3-4.32Z" style="fill:#37474f"></path><path d="M388.39,118.4a12.87,12.87,0,0,1-6.32-1.52c-1.91-1.11-3-2.64-3-4.33s1.05-3.22,3-4.33a13.88,13.88,0,0,1,12.63,0c1.91,1.11,3,2.64,3,4.33s-1.05,3.22-3,4.33A12.86,12.86,0,0,1,388.39,118.4Z" style="fill:#455a64"></path><path d="M382.66,115.86a12.69,12.69,0,0,0,11.45,0c3.17-1.83,3.17-4.79,0-6.62a12.69,12.69,0,0,0-11.45,0C379.49,111.07,379.49,114,382.66,115.86Z" style="fill:#263238"></path><path d="M386.56,108a10.71,10.71,0,0,0-3.9,1.24c-3.17,1.83-3.17,4.79,0,6.62a10.71,10.71,0,0,0,3.9,1.24Z"></path><g style="opacity:0.1"><path d="M391,117a10.3,10.3,0,0,0,3-1.07v-6.7a10.59,10.59,0,0,0-3-1.07Z" style="fill:#fff"></path></g></g></g><g id="freepik--pipe--inject-8"><polygon points="417.06 231.3 417.06 211.18 436.17 200.15 436.17 220.26 417.06 231.3" style="fill:#263238"></polygon><polygon points="417.06 231.3 417.06 211.18 397.94 200.15 397.94 220.26 417.06 231.3" style="fill:#37474f"></polygon><polygon points="436.17 200.15 417.05 189.11 397.94 200.15 417.06 211.18 436.17 200.15" style="fill:#455a64"></polygon><polygon points="417.06 209.52 417.06 205.55 432.98 196.36 432.98 200.33 417.06 209.52" style="fill:#263238"></polygon><polygon points="417.06 209.52 417.06 205.55 401.13 196.36 401.13 200.33 417.06 209.52" style="fill:#37474f"></polygon><polygon points="432.98 196.36 417.06 187.16 401.13 196.36 417.06 205.55 432.98 196.36" style="fill:#455a64"></polygon><g id="freepik--pipe--inject-8"><path d="M426.61,196.3l-1.45-67.2c0-1.19-.79-2.39-2.38-3.31a12.69,12.69,0,0,0-11.45,0c-1.59.92-2.38,2.11-2.38,3.31h0l-1.45,67.2h0c0,1.43.91,2.87,2.8,4a15,15,0,0,0,13.51,0c1.89-1.09,2.82-2.53,2.8-4Z" style="fill:#37474f"></path><g style="opacity:0.30000000000000004"><path d="M410.42,126.42l-1.81,72.52a7.14,7.14,0,0,0,1.69,1.32c.29.17.61.32.93.47l.78-75.28a6.16,6.16,0,0,0-.68.34A7.26,7.26,0,0,0,410.42,126.42Z" style="fill:#fff"></path></g><g style="opacity:0.15"><path d="M426.3,185l-.09-3.39h0l-.36-27.13h0l-.13-4.62h0l-.56-20.79a2,2,0,0,0,0-.41,4.28,4.28,0,0,0-2.34-2.9,9.59,9.59,0,0,0-1.69-.74l0,1.11a14.73,14.73,0,0,0-4.05-.56,13.3,13.3,0,0,0-6.44,1.53,7.54,7.54,0,0,0-1.54,1.15,2.92,2.92,0,0,0-.13.82l-.2,7.54a7.2,7.2,0,0,0,1.87,1.5,13.3,13.3,0,0,0,6.44,1.53,14.58,14.58,0,0,0,4.31-.63l.3,14.4a14.12,14.12,0,0,1-10.8-.7,4.69,4.69,0,0,1-2.48-2.86l-.13,4.62a7.19,7.19,0,0,0,2,1.61,14,14,0,0,0,6.79,1.62,15.3,15.3,0,0,0,4.68-.71l.29,28.32a14.91,14.91,0,0,1-11.51-.71,4.92,4.92,0,0,1-2.62-3l-.13,4.65a7.65,7.65,0,0,0,2.15,1.74,14.72,14.72,0,0,0,7.14,1.69,16.39,16.39,0,0,0,5.05-.78l.24,12a10.34,10.34,0,0,0,1.46-.69c1.89-1.09,2.82-2.53,2.8-4h0Z"></path></g><path d="M426.82,146.88v2.35a4.44,4.44,0,0,1-1,2.81,7.33,7.33,0,0,1-2.07,1.72,14.56,14.56,0,0,1-13.31,0,7.33,7.33,0,0,1-2.07-1.72,4.44,4.44,0,0,1-1-2.81v-2.35a4.55,4.55,0,0,1,1.26-3.07l-.07,2.83v.24c0,1.27.84,2.54,2.52,3.5a13.39,13.39,0,0,0,12.14,0c1.66-.95,2.5-2.21,2.51-3.47v-.27l-.08-2.83A4.55,4.55,0,0,1,426.82,146.88Z" style="fill:#37474f"></path><path d="M426.82,146.88a4.53,4.53,0,0,1-1.1,2.88,7.09,7.09,0,0,1-2,1.64,14.56,14.56,0,0,1-13.31,0,7,7,0,0,1-2-1.64,4.48,4.48,0,0,1-1.1-2.88,4.55,4.55,0,0,1,1.26-3.07l-.07,2.83v.24c0,1.27.84,2.54,2.52,3.5a13.39,13.39,0,0,0,12.14,0c1.66-.95,2.5-2.21,2.51-3.47v-.27l-.08-2.83A4.55,4.55,0,0,1,426.82,146.88Z" style="fill:#BA68C8"></path><path d="M427.31,178.58v2.35a4.61,4.61,0,0,1-1,2.87,7.79,7.79,0,0,1-2.21,1.86,15.44,15.44,0,0,1-14,0,7.52,7.52,0,0,1-2.21-1.87,4.59,4.59,0,0,1-1-2.86v-2.35a4.69,4.69,0,0,1,1.26-3.14l-.08,2.88v.26c0,1.34.89,2.68,2.66,3.7a14.21,14.21,0,0,0,12.83,0c1.74-1,2.63-2.32,2.66-3.63v-.36l-.07-2.86A4.73,4.73,0,0,1,427.31,178.58Z" style="fill:#37474f"></path><path d="M427.31,178.58a4.65,4.65,0,0,1-1.1,2.94,7.89,7.89,0,0,1-2.15,1.78,15.36,15.36,0,0,1-14,0,7.89,7.89,0,0,1-2.15-1.78,4.64,4.64,0,0,1-1.09-2.94,4.69,4.69,0,0,1,1.26-3.14l-.08,2.88v.26c0,1.34.89,2.68,2.66,3.7a14.21,14.21,0,0,0,12.83,0c1.74-1,2.63-2.32,2.66-3.63v-.36l-.07-2.86A4.73,4.73,0,0,1,427.31,178.58Z" style="fill:#BA68C8"></path><path d="M426.33,129.1c0-1.68-1.05-3.22-3-4.32a13.8,13.8,0,0,0-12.63,0c-1.91,1.1-3,2.64-3,4.32v2.36c0,1.68,1.05,3.22,3,4.32a13.8,13.8,0,0,0,12.63,0c1.91-1.1,3-2.64,3-4.32Z" style="fill:#37474f"></path><path d="M417.06,135a12.88,12.88,0,0,1-6.32-1.53c-1.91-1.1-3-2.64-3-4.33s1.05-3.22,3-4.32a13.8,13.8,0,0,1,12.63,0c1.91,1.1,3,2.64,3,4.32s-1.05,3.23-3,4.33A12.86,12.86,0,0,1,417.06,135Z" style="fill:#455a64"></path><path d="M411.33,132.41a12.63,12.63,0,0,0,11.45,0c3.17-1.83,3.17-4.79,0-6.62a12.69,12.69,0,0,0-11.45,0C408.16,127.62,408.16,130.58,411.33,132.41Z" style="fill:#263238"></path><path d="M415.22,124.55a10.72,10.72,0,0,0-3.89,1.24c-3.17,1.83-3.17,4.79,0,6.62a10.72,10.72,0,0,0,3.89,1.24Z"></path><g style="opacity:0.1"><path d="M419.69,133.52a10.3,10.3,0,0,0,3-1.07v-6.69a10.31,10.31,0,0,0-3-1.08Z" style="fill:#fff"></path></g></g></g></g><g id="freepik--Smoke--inject-8"><path d="M216.49,75.19c2.71,2.13,6.37,1,12.46,0a45.46,45.46,0,0,1,16.26,0c5.6,1.19,12.06,3.79,18.06,4.51,4.66.56,10.09-.58,16.71-2.54,4-1.2,8.8-2.75,14.77-1.22a56.63,56.63,0,0,1,7.75,2.84,31,31,0,0,0,18.68,1.59c4.95-1.13,8.83-1.93,13.26,1.33,2.31,1.7,4.44,3.81,7.18,4.68,1.71.54,3.56.55,5.3,1,5.57,1.52,7.69,7,7.71,12.23a13,13,0,0,0,10.12,0c0-1.44,0-12.66,0-15.71,0-5,0,12,0,10.77-.07-6.35-.42-22.27-1.79-26.86-2.19-7.3-8.16-14-15.76-14.69-3-.25-6.24.41-8.9-1-2-1.07-3.24-3.1-4.7-4.83a20.54,20.54,0,0,0-29.33-2.08c-6.05-6.87-17.68-7.84-24.79-2.06-3.75,3-6.5,7.74-11.17,9-2.28.61-4.71.28-7.06.55-8.71,1-11.48,7.71-20.1,9.32-4.24.8-9.73.07-16.32,2.41C219.58,66.31,213.1,72.52,216.49,75.19Z" style="fill:#e0e0e0"></path></g><path d="M458,100.84c-1.13,3.2-4,5.48-7.19,6.72s-6.56,1.62-9.9,2.13c-5.09.78-10.4,2-14.72,4.93-4,2.71-3.83,6.21-3.83,10.72v.26c0,2.13,0,4.92.06,7a12.74,12.74,0,0,1-11.08-.15V120.81c.1-6.16,0-13-4.14-17.53-2.89-3.23-7.45-4.91-9.55-8.71-2.8-5.07-.26-12.3-4.14-16.61a11.81,11.81,0,0,0-3.6-2.5C385,73,375.58,71.6,374.3,65.13a7.55,7.55,0,0,1,2.82-7.35c3.25-2.43,7.75-1.82,11.74-2.55,5.7-1,10.59-5,16.32-5.81a19.65,19.65,0,0,1,13.73,3.74c3.46,2.42,6.31,5.66,10,7.75,4.35,2.48,9.48,3.12,14.22,4.77s9.52,4.88,10.47,9.8a38.65,38.65,0,0,1,.29,4.94C454.31,87.5,460.67,93.31,458,100.84Z" style="fill:#e0e0e0"></path><path d="M434.68,119c-1.81.68-3.61,2.58-2.8,4.34a4.59,4.59,0,0,0,2.74,1.94,9.21,9.21,0,0,1,4.07,2.61c.88,1.12,1.24,2.56,2,3.74a7.22,7.22,0,0,0,7.08,2.8,10.87,10.87,0,0,0,6.64-4.21,10.08,10.08,0,0,1,2.05-2.31c1.51-1,3.52-.83,5.29-1.3,3.14-.83,5.35-3.78,6.2-6.91s.56-6.44.21-9.66c-.17-1.68-.54-3.62-2.05-4.38-1.84-.93-4,.63-5.12,2.36s-1.88,3.85-3.64,4.92-4.05.75-6,1.47c-1.43.52-2.21,1.62-3.44,2.41C444.12,119.22,438.86,117.4,434.68,119Z" style="fill:#ebebeb"></path><g id="freepik--smoke--inject-8" style="opacity:0.1"><path d="M274.24,90.61a3.44,3.44,0,0,0,2.12,2.13A24.39,24.39,0,0,0,282.54,94c5.78.76,11.09,3.48,16.52,5.61s11.45,3.71,17.06,2.1c3.3-.95,6.39-2.92,9.89-3,3.85-.11,6.59,2.22,9.7,4.17a17.56,17.56,0,0,0,14.14,2.43c4.64-1.07,9.6-3.19,13.93-1.21,2,.91,3.91,4.08,7.14,4.76,2.35.49,4.22-.65,6.44-1.1,1.47-.3,3.05,3.91,4.39,4.61,1.6.83,1.54,2.25,1.55,3.82a13,13,0,0,0,10.11,0c0-1.45,0-4.28,0-7.32,0-5,0,3.61,0,2.37-.07-6.35-.42-13.88-1.8-18.46-2.18-7.31-8.15-14-15.75-14.69-4.1-.35-7.09-.19-10.5-3-4.21-3.42-7.07-6.49-12.5-8a25.84,25.84,0,0,0-16,.86c-3.7,1.43-7.05,3.66-10.62,5.22-4,1.74-9,.8-13.16.81-4.91,0-10,1-14,3.83-1.6,1.16-3,2.6-4.68,3.65-5.78,3.63-14,2.19-19.1,6.71a3.16,3.16,0,0,0-1.09,1.59A1.91,1.91,0,0,0,274.24,90.61Z"></path></g></g><g id="freepik--warehouse-1--inject-8"><g id="freepik--wall--inject-8"><polygon points="366.09 246.01 366.09 246.01 366.09 223.94 340.61 231.3 340.61 231.3 340.6 231.3 340.6 231.3 340.6 209.23 315.12 216.59 315.12 216.59 315.12 216.58 315.12 216.58 315.12 194.51 289.64 201.87 289.64 201.87 289.64 201.87 289.64 286.38 366.09 330.52 366.09 246.01 366.09 246.01" style="fill:#37474f"></polygon></g><path d="M318.2,225.72h0v14.71l19.32,11.16V236.88L318.2,225.72Zm22.3,12.87h0v14.72l19.32,11.15V249.75Zm-44.6-25.74h0v14.71l19.33,11.16V224L295.9,212.85Z" style="fill:#455a64"></path><g id="freepik--wall--inject-8"><polygon points="366.09 223.94 404.31 201.87 404.31 308.45 366.09 330.52 366.09 223.94" style="fill:#263238"></polygon></g><path d="M380.42,238.83h0l9.56-5.51V216.58l-9.56,5.52Zm-12.74,7.36h0l9.56-5.52V223.94l-9.56,5.51Zm25.48-31.45v16.74h0l9.56-5.52V209.22Z" style="fill:#455a64"></path><path d="M380.42,262.38h0l9.56-5.52V240.12l-9.56,5.52Zm-12.74,7.35h0l9.56-5.51V247.48L367.68,253Zm25.48-31.45V255h0l9.56-5.52V232.76Z" style="fill:#455a64"></path><polygon points="353.35 172.45 315.12 194.51 315.12 216.59 353.35 194.52 353.35 172.45" style="fill:#37474f"></polygon><path d="M316.71,212.73h0l9.56-5.52V190.48L316.71,196Zm12.74-7.36h0l9.56-5.52V183.12l-9.56,5.52Zm12.75-24.09V198h0l9.55-5.51V175.76Z" style="fill:#455a64"></path><polygon points="340.6 209.23 378.83 187.16 378.83 209.23 340.61 231.3 340.6 209.23" style="fill:#37474f"></polygon><path d="M354.94,220.09h0l9.55-5.52V197.83l-9.55,5.52ZM367.68,196v16.74h0l9.56-5.52V190.47ZM342.2,227.44h0l9.55-5.51V205.19l-9.55,5.52Z" style="fill:#455a64"></path><path d="M342.8,228.73,340.6,230v1.3l29.22-8.44L408,200.79v-1.3l-29.21,8.44-1.42.82-2.76.82-3.19,1.85v.76h0l-3.62,2.09-2.76.82-3.18,1.84v.77h0l-3.61,2.09-2.76.82-3.19,1.84v.77h0l-3.61,2.08c-.92.28-1.84.54-2.76.83h0L342.79,228v.76Zm-53.16-28.16v1.3l29.21-8.44,38.23-22.07v-1.29l-29.22,8.43-1.42.82-2.76.83L320.49,182v.77h0l-3.61,2.09-2.76.82h0l-3.19,1.84v.76h0l-3.61,2.09-2.76.82L301.38,193v.77h0l-3.62,2.09-2.76.82-3.19,1.84v.77h0ZM317.31,214l-2.19,1.27v1.29l29.21-8.43,38.23-22.07v-1.3l-29.21,8.44-1.42.82-2.77.82L346,196.7v.77h0l-3.61,2.08-2.76.83h0l-3.19,1.84V203h0l-3.62,2.08c-.92.28-1.84.54-2.76.83l-3.18,1.84v.76h0l-3.62,2.09-2.75.82-3.19,1.84V214Z" style="fill:#BA68C8"></path><g id="freepik--roof--inject-8"><polygon points="357.08 170.07 327.86 178.5 289.64 200.57 289.64 201.87 318.85 193.43 357.08 171.37 357.08 170.07" style="opacity:0.2"></polygon><polygon points="357.08 170.07 327.86 178.5 289.64 200.57 318.85 192.13 357.08 170.07" style="fill:#BA68C8"></polygon><polygon points="357.08 170.07 318.85 192.13 318.85 193.43 357.08 171.37 357.08 170.07" style="fill:#263238"></polygon><polygon points="321.04 190.87 291.82 199.31 291.82 198.54 321.04 190.1 321.04 190.87" style="opacity:0.2"></polygon><polygon points="291.82 198.54 295.01 196.7 324.23 188.26 321.04 190.1 291.82 198.54" style="fill:#BA68C8"></polygon><path d="M324.23,188.26c-4.85,1.49-9.73,2.88-14.58,4.32s-9.75,2.8-14.64,4.12c4.85-1.49,9.72-2.87,14.58-4.31S319.33,189.59,324.23,188.26Z" style="opacity:0.2"></path><polygon points="321.04 190.87 321.04 190.1 324.23 188.26 324.23 189.03 321.04 190.87" style="fill:#263238"></polygon><polygon points="330.6 185.35 301.38 193.79 301.38 193.02 330.6 184.59 330.6 185.35" style="opacity:0.2"></polygon><polygon points="301.38 193.02 304.57 191.18 333.78 182.75 330.6 184.59 301.38 193.02" style="fill:#BA68C8"></polygon><path d="M333.78,182.74c-4.84,1.49-9.72,2.88-14.58,4.32s-9.74,2.8-14.63,4.12c4.85-1.48,9.72-2.87,14.58-4.31S328.89,184.07,333.78,182.74Z" style="opacity:0.2"></path><polygon points="330.6 185.35 330.6 184.59 333.78 182.75 333.78 183.51 330.6 185.35" style="fill:#263238"></polygon><polygon points="340.15 179.84 310.94 188.27 310.94 187.51 340.15 179.07 340.15 179.84" style="opacity:0.2"></polygon><polygon points="310.94 187.51 314.13 185.66 343.34 177.23 340.15 179.07 310.94 187.51" style="fill:#BA68C8"></polygon><path d="M343.34,177.23c-4.85,1.48-9.72,2.87-14.58,4.31s-9.74,2.8-14.63,4.13c4.84-1.49,9.72-2.88,14.58-4.32S338.45,178.55,343.34,177.23Z" style="opacity:0.2"></path><polygon points="340.15 179.84 340.15 179.07 343.34 177.23 343.34 178 340.15 179.84" style="fill:#263238"></polygon><polygon points="349.71 174.32 320.5 182.76 320.5 181.99 349.71 173.55 349.71 174.32" style="opacity:0.2"></polygon><polygon points="320.5 181.99 323.68 180.15 352.89 171.71 349.71 173.55 320.5 181.99" style="fill:#BA68C8"></polygon><path d="M352.9,171.71c-4.85,1.49-9.73,2.87-14.58,4.31s-9.75,2.8-14.64,4.13c4.85-1.49,9.72-2.88,14.58-4.31S348,173,352.9,171.71Z" style="opacity:0.2"></path><polygon points="349.71 174.32 349.71 173.55 352.89 171.71 352.89 172.48 349.71 174.32" style="fill:#263238"></polygon></g><g id="freepik--roof--inject-8"><polygon points="382.56 184.78 353.35 193.22 315.12 215.29 315.12 216.59 344.33 208.15 382.56 186.08 382.56 184.78" style="opacity:0.2"></polygon><polygon points="382.56 184.78 353.35 193.22 315.12 215.29 344.33 206.85 382.56 184.78" style="fill:#BA68C8"></polygon><polygon points="382.56 184.78 344.33 206.85 344.33 208.15 382.56 186.08 382.56 184.78" style="fill:#263238"></polygon><g style="opacity:0.2"><polygon points="346.52 205.58 317.31 214.02 317.31 213.25 346.52 204.82 346.52 205.58"></polygon></g><polygon points="317.31 213.25 320.5 211.41 349.71 202.98 346.52 204.82 317.31 213.25" style="fill:#BA68C8"></polygon><path d="M349.71,203c-4.85,1.48-9.72,2.87-14.58,4.31s-9.74,2.8-14.63,4.12c4.84-1.48,9.72-2.87,14.58-4.31S344.82,204.3,349.71,203Z" style="opacity:0.2"></path><polygon points="346.52 205.58 346.52 204.82 349.71 202.98 349.71 203.74 346.52 205.58" style="fill:#263238"></polygon><polygon points="356.08 200.07 326.87 208.5 326.87 207.74 356.08 199.3 356.08 200.07" style="opacity:0.2"></polygon><polygon points="326.87 207.74 330.05 205.9 359.27 197.46 356.08 199.3 326.87 207.74" style="fill:#BA68C8"></polygon><path d="M359.27,197.46c-4.85,1.49-9.72,2.87-14.58,4.31s-9.74,2.8-14.64,4.13c4.85-1.49,9.72-2.88,14.58-4.32S354.37,198.78,359.27,197.46Z" style="opacity:0.2"></path><polygon points="356.08 200.07 356.08 199.3 359.27 197.46 359.27 198.22 356.08 200.07" style="fill:#263238"></polygon><polygon points="365.64 194.55 336.42 202.99 336.42 202.22 365.64 193.78 365.64 194.55" style="opacity:0.2"></polygon><polygon points="336.42 202.22 339.61 200.38 368.82 191.94 365.64 193.78 336.42 202.22" style="fill:#BA68C8"></polygon><path d="M368.82,191.94c-4.84,1.49-9.72,2.87-14.58,4.31s-9.74,2.8-14.63,4.13c4.85-1.49,9.72-2.87,14.58-4.31S363.93,193.27,368.82,191.94Z" style="opacity:0.2"></path><polygon points="365.64 194.55 365.64 193.78 368.82 191.94 368.82 192.71 365.64 194.55" style="fill:#263238"></polygon><polygon points="375.19 189.03 345.98 197.47 345.98 196.7 375.19 188.26 375.19 189.03" style="opacity:0.2"></polygon><polygon points="345.98 196.7 349.17 194.86 378.38 186.42 375.19 188.26 345.98 196.7" style="fill:#BA68C8"></polygon><path d="M378.38,186.42c-4.85,1.49-9.72,2.88-14.58,4.32s-9.74,2.8-14.64,4.12c4.85-1.49,9.73-2.87,14.58-4.31S373.49,187.75,378.38,186.42Z" style="opacity:0.2"></path><polygon points="375.19 189.03 375.19 188.26 378.38 186.42 378.38 187.19 375.19 189.03" style="fill:#263238"></polygon></g><g id="freepik--roof--inject-8"><polygon points="408.04 199.49 378.83 207.93 340.6 230 340.6 231.3 369.82 222.86 408.04 200.79 408.04 199.49" style="opacity:0.2"></polygon><polygon points="408.04 199.49 378.83 207.93 340.6 230 369.82 221.56 408.04 199.49" style="fill:#BA68C8"></polygon><polygon points="408.04 199.49 369.82 221.56 369.82 222.86 408.04 200.79 408.04 199.49" style="fill:#263238"></polygon><polygon points="372.01 220.3 342.79 228.74 342.79 227.97 372.01 219.53 372.01 220.3" style="opacity:0.2"></polygon><polygon points="342.79 227.97 345.98 226.13 375.19 217.69 372.01 219.53 342.79 227.97" style="fill:#BA68C8"></polygon><path d="M375.19,217.69c-4.84,1.49-9.72,2.87-14.58,4.31s-9.74,2.8-14.63,4.13c4.84-1.49,9.72-2.88,14.58-4.32S370.3,219,375.19,217.69Z" style="opacity:0.2"></path><polygon points="372.01 220.3 372.01 219.53 375.19 217.69 375.19 218.46 372.01 220.3" style="fill:#263238"></polygon><polygon points="381.56 214.78 352.35 223.22 352.35 222.45 381.56 214.01 381.56 214.78" style="opacity:0.2"></polygon><polygon points="352.35 222.45 355.54 220.61 384.75 212.17 381.56 214.01 352.35 222.45" style="fill:#BA68C8"></polygon><path d="M384.75,212.17c-4.85,1.49-9.72,2.87-14.58,4.31s-9.74,2.8-14.63,4.13c4.84-1.49,9.72-2.87,14.58-4.31S379.86,213.5,384.75,212.17Z" style="opacity:0.2"></path><polygon points="381.56 214.78 381.56 214.01 384.75 212.17 384.75 212.94 381.56 214.78" style="fill:#263238"></polygon><polygon points="391.12 209.26 361.91 217.7 361.91 216.93 391.12 208.49 391.12 209.26" style="opacity:0.2"></polygon><polygon points="361.91 216.93 365.09 215.09 394.31 206.65 391.12 208.49 361.91 216.93" style="fill:#BA68C8"></polygon><path d="M394.31,206.65c-4.85,1.49-9.72,2.88-14.58,4.32s-9.74,2.8-14.64,4.12c4.85-1.49,9.72-2.87,14.58-4.31S389.41,208,394.31,206.65Z" style="opacity:0.2"></path><polygon points="391.12 209.26 391.12 208.49 394.31 206.65 394.31 207.42 391.12 209.26" style="fill:#263238"></polygon><polygon points="400.68 203.75 371.46 212.18 371.46 211.41 400.68 202.98 400.68 203.75" style="opacity:0.2"></polygon><polygon points="371.46 211.41 374.65 209.57 403.86 201.14 400.68 202.98 371.46 211.41" style="fill:#BA68C8"></polygon><path d="M403.86,201.14c-4.84,1.48-9.72,2.87-14.58,4.31s-9.74,2.8-14.63,4.12c4.84-1.48,9.72-2.87,14.58-4.31S399,202.46,403.86,201.14Z" style="opacity:0.2"></path><polygon points="400.68 203.75 400.68 202.98 403.86 201.14 403.86 201.9 400.68 203.75" style="fill:#263238"></polygon></g></g></g></g><g id="freepik--Liquid--inject-8"><path d="M290.89,359.66a23.73,23.73,0,0,0-5.86,1.8c-3.17,1.51-6.46,4.34-4.88,7,1.84,3.08,8.38,4,12.31,5.77,5.28,2.38.42,4.83-.61,7.53-1.57,4.12,6.67,8.33,16.73,10.12,6.4,1.14,13.08,1.51,19.6,2.29,2.46.29,5.52.32,7.74,1a19.82,19.82,0,0,1,6,3.51c4.13,3.07,7.19,5.63,13.45,7.19a60.92,60.92,0,0,0,18.83,1.48,35.28,35.28,0,0,0,14.11-4.69,33.23,33.23,0,0,1,14.06-5.05c14.19-1.69,29.39-2.85,35.45-8.47,5.57-5.16-2-10.1-15.2-12.64-12.13-2.35-28.34-1.71-38.75-5.25C371,366.84,376,357,351.18,357.76a119.29,119.29,0,0,0-13.9,1.1,82.46,82.46,0,0,1-23.25.6C306.48,358.78,297.72,358.38,290.89,359.66Z" style="fill:#BA68C8"></path><g style="opacity:0.1"><path d="M306.86,373.12c.49-2.69-2.79-4-4.62-6.22s-2.61-5.18.06-7.22a10.23,10.23,0,0,1,1.27-.82c3.54.07,7.12.3,10.46.6h0a31.54,31.54,0,0,0-3.56,2c-1.87,1.94-1.53,3.52.3,5.37a12.6,12.6,0,0,0,3.69,2.84c1.28.66,2.92,1.29,3.4,2.34.66,1.47-1.61,2.87-3.09,3.87-4.49,3-7.7,6.93-2.83,10.57,2.55,1.91,6.52,3.09,9.7,4.55a4.66,4.66,0,0,1,2.84,2.7c-5.33-.54-10.71-1-15.91-1.89a51.11,51.11,0,0,1-7.79-2c-.54-.89-1.38-1.71-2-2.62-1.13-1.63-1.42-3.28-.33-5C300.52,379.12,306.24,376.59,306.86,373.12Z" style="fill:#fff"></path><path d="M320.34,377.1c1.43-1.61,5.5-2.3,5.88-4.29.34-1.73-3.72-3.58-5.18-4.89-1.86-1.67-2.5-3.14-.56-4.88a23.36,23.36,0,0,1,4.44-3.05c1.9,0,3.75-.13,5.73-.31-.9.25-1.8.52-2.68.83-3,1-6.28,2.13-6.39,4.52-.15,3.67,11.71,5.7,8.41,9.56-1.4,1.65-4.79,2.25-6.44,3.77-2,1.87-.07,3,2.39,4.09,5,2.22,10.31,4.1,11.71,8.13a4.75,4.75,0,0,1-.94,4.84c-.25-.1-.52-.2-.79-.28a10.14,10.14,0,0,0-1-.25,4.83,4.83,0,0,0,.29-4.27c-.8-1.78-3.39-3.91-5.49-5.12-2.47-1.43-5.88-1.87-8.26-3.27C318.57,380.53,318.54,379.13,320.34,377.1Z" style="fill:#fff"></path><path d="M397.1,395a8.34,8.34,0,0,1,2.7,3,33.43,33.43,0,0,0-9.71,3.58,4.13,4.13,0,0,0,.36-1.52c.07-2.31-2.14-3.12-5.19-4.21a42.87,42.87,0,0,0-8.61-2.13c-3.61-.51-8.49-.75-9.76-3.36-2-4.07,7.66-5.29,11.82-6.71,4.64-1.59,2.19-2.62-1.8-3.94-3.47-1.15-8.62-3.36-4.93-5.89a27,27,0,0,1,9.62-3.52,21.4,21.4,0,0,0,2.29.92,69.48,69.48,0,0,0,15,2.73c-2,.47-4.35,1.14-4.8,2-1.09,2.19,6.68,3.25,7.95,5,4.62,6.37-20,5.66-12.26,10.78C391.87,393.2,395,393.53,397.1,395Z" style="fill:#fff"></path><path d="M361.28,381.92c2.16-2-1.7-3.44-3.68-4.89s-3.5-4.07-1.79-6.07,6.83-3,9.86-3.88a40.6,40.6,0,0,1,9.22-1.61h.16c.69.7,1.42,1.4,2.22,2.07a51.37,51.37,0,0,0-12.21,2.63c-2.56,1-4.4,2.56-3.94,4.51.32,1.4,1.76,2.54,3.54,3.32,1.51.66,3.2,1.43,3.65,2.61s-.07,2.5-1.69,3.27c-4,1.88-9.85,3.13-10.07,6.83-.26,4.51,14.37,6.05,19.58,7.75,3.46,1.13,6.9,2.23,7.13,4.91a3,3,0,0,1-.67,2c-.69.25-1.39.49-2.11.7.75-.94,1.15-1.93.51-2.8-1-1.39-4.56-1.79-6.63-2.18-7.48-1.42-17.26-2.72-21.82-7.05-2.69-2.55-2.61-5.75.81-8.13C355.51,384.38,359.49,383.58,361.28,381.92Z" style="fill:#fff"></path></g><path d="M350.17,404a51.93,51.93,0,0,0,10,1.14,69.57,69.57,0,0,0,12.79-.84,33.38,33.38,0,0,0,10.88-4.59c3.8-2.27,7.44-4.51,12.5-5.69a159.32,159.32,0,0,1,16.71-2.54c6.74-.84,14.86-.77,20.55-3.39,2.32-1.06,4.41-2.26,4.84-4.11.05-.22.12-.56.17-.93,1.58,1.88,1.5,3.94-.76,6-6.07,5.62-21.27,6.78-35.46,8.47a33.23,33.23,0,0,0-14.06,5.05,35.28,35.28,0,0,1-14.11,4.69,60.92,60.92,0,0,1-18.83-1.48A28.75,28.75,0,0,1,350.17,404Z" style="opacity:0.15"></path><path d="M282.34,364.5c-.16,2.09.18,3.28,3.08,4.57,2,.88,4,1.63,6.09,2.36,1.38.47,4.13,1.2,4.81,2.13.89,1.2-.35,2.41-1.51,3.55.24-1-.25-1.95-2.35-2.9-3.93-1.76-10.47-2.69-12.31-5.77-1.23-2.06.51-4.24,2.84-5.82A6.48,6.48,0,0,0,282.34,364.5Z" style="opacity:0.15"></path><path d="M296.93,379.71a3.9,3.9,0,0,1,2.79-.89c2.53.05,4.49,2.18,5.55,3.37,2.83,3.16,8.49,5.21,13.58,6.7,1,.29,4,.71,3.77,1.64s-2.08.72-3,.71c-7.57-.05-14.94-1.84-20.51-5-1.79-1-3.67-2.7-3.34-4.25A4.22,4.22,0,0,1,296.93,379.71Z" style="fill:#fff;opacity:0.30000000000000004"></path><path d="M325.7,390.27a2.66,2.66,0,0,1,.88-.28,7,7,0,0,1,4.3.85c1,.84-1.22,1.11-2.31,1.12C327.12,392,324.63,390.9,325.7,390.27Z" style="fill:#fff;opacity:0.30000000000000004"></path><path d="M351.25,359.22a53.85,53.85,0,0,1,10.88,1c1.54.31,5,.94,4.29,2.46s-5.88.57-7.38.28a75.78,75.78,0,0,0-10.92-1.36,61.63,61.63,0,0,0-8.72.24c-1.23.09-3.66.44-4.63-.24-.78-.58,2.09-1,3.18-1.24A75.88,75.88,0,0,1,351.25,359.22Z" style="fill:#fff;opacity:0.30000000000000004"></path><path d="M426.54,379c3.95,1.25,8.6,3.41,7.2,6a5.85,5.85,0,0,1-5.79,2c-1.86-.64-1-2.17-1.14-3.21a2.8,2.8,0,0,0-.46-1.4,4.15,4.15,0,0,0-1.25-1.07,20.17,20.17,0,0,0-4.69-1.74c-1.58-.44-3.16-.91-4.8-1.25-.69-.15-3.7-.72-2.07-1.3a9.13,9.13,0,0,1,3.42,0,53.07,53.07,0,0,1,6.89,1.29C424.64,378.43,425.57,378.68,426.54,379Z" style="fill:#fff;opacity:0.30000000000000004"></path><path d="M424,386.48c1.11-.1,2.18.18,2.38.95.27,1.07-1.17,1.4-2.6,1.59s-3.18,0-2.44-1.15a3.47,3.47,0,0,1,2.38-1.36A1.27,1.27,0,0,1,424,386.48Z" style="fill:#fff;opacity:0.30000000000000004"></path></g><g id="freepik--Pipeline--inject-8"><g id="freepik--pipeline--inject-8"><g id="freepik--pipeline--inject-8"><path d="M354.44,317.33l-15,26L308,325.23l-7.76-4.48a12,12,0,0,1-.63-4c0-7.55,5.3-16.73,11.84-20.51a12.34,12.34,0,0,1,3.81-1.48L326,300.91Z" style="fill:#e6e6e6"></path><path d="M342.83,335.23l-42.28-24.41a20.72,20.72,0,0,0-.94,5.9,12,12,0,0,0,.63,4l7.76,4.48,31.42,18.11,3.25-5.62Z" style="opacity:0.1"></path><path d="M350,316.82a11.19,11.19,0,0,0-3.1,1.25,19.37,19.37,0,0,0-5.14,4.51l-15.18-8.76c-6.26-3.62-6.74-3.86-13-7.48-1.81-1-6.32-3.63-8.22-4.7a21.75,21.75,0,0,1,6.06-5.43,13.35,13.35,0,0,1,1.51-.76Z" style="fill:#f0f0f0"></path><path d="M336.31,336.47c0,6.77,4.76,9.52,10.62,6.13s10.63-11.62,10.63-18.39-4.76-9.52-10.63-6.14S336.31,329.7,336.31,336.47Z" style="fill:#e0e0e0"></path><path d="M342.19,342.29c-2.57,0-4.11-2.18-4.11-5.82,0-6.09,4.46-13.82,9.74-16.87a8,8,0,0,1,3.86-1.21c2.57,0,4.11,2.17,4.11,5.82,0,6.09-4.46,13.81-9.74,16.86a7.92,7.92,0,0,1-3.86,1.22Z" style="fill:#e0e0e0"></path><path d="M342.19,342.29c-2.57,0-4.11-2.18-4.11-5.82,0-6.09,4.46-13.82,9.74-16.87a8,8,0,0,1,3.86-1.21c2.57,0,4.11,2.17,4.11,5.82,0,6.09-4.46,13.81-9.74,16.86a7.92,7.92,0,0,1-3.86,1.22Z" style="opacity:0.2"></path><path d="M326,300.92l-2.81-1.63a5.7,5.7,0,0,0-3.38-.68,10.26,10.26,0,0,0-4.13,1.43c-5.87,3.39-10.62,11.62-10.62,18.39,0,3.31,1.14,5.66,3,6.8l.13.08,2.81,1.62-.27.05-.27,0-.53.05h-.26c-.26,0-.51,0-.76,0l-.24,0h0l-.46-.08a4.92,4.92,0,0,1-.55-.14,1.17,1.17,0,0,1-.2-.06l-.26-.1a1.39,1.39,0,0,1-.28-.12l-.23-.11-.24-.12-3.29-1.91a6.5,6.5,0,0,1-2.84-3.63,12,12,0,0,1-.63-4c0-7.55,5.3-16.73,11.84-20.51a12.34,12.34,0,0,1,3.81-1.48,6.53,6.53,0,0,1,4.56.66l3.29,1.89.24.15.21.14.24.18.21.18.16.14c.13.13.26.26.39.41s.21.24.3.36l0,0c0,.07.09.13.13.19s.28.42.41.64.08.16.11.24a3.05,3.05,0,0,1,.23.48,1.86,1.86,0,0,1,.1.25,1.84,1.84,0,0,1,.09.25Z" style="fill:#f5f5f5"></path><path d="M306.37,326.28c-2.14-1.23-3.47-3.89-3.47-7.66,0-7.55,5.3-16.73,11.84-20.51,3.27-1.88,6.23-2.06,8.37-.83a6.62,6.62,0,0,1,2.85,3.64l-2.81-1.63a5.72,5.72,0,0,0-3.38-.68,10.26,10.26,0,0,0-4.13,1.43c-5.87,3.39-10.62,11.62-10.62,18.39,0,3.39,1.19,5.77,3.11,6.88l2.81,1.62A6.56,6.56,0,0,1,306.37,326.28Z" style="fill:#e0e0e0"></path><path d="M324.62,336.79l-3.29-1.9c-2.14-1.24-3.47-3.89-3.47-7.66,0-7.55,5.31-16.74,11.84-20.51,3.27-1.89,6.23-2.07,8.38-.83l3.29,1.9.23.15.21.14.24.18.21.18.16.14a3.68,3.68,0,0,1,.39.4,3.47,3.47,0,0,1,.3.37l0,0c0,.06.09.12.13.19a5.84,5.84,0,0,1,.41.64,1.63,1.63,0,0,1,.11.23,4.23,4.23,0,0,1,.23.48,2.77,2.77,0,0,1,.1.26,1.86,1.86,0,0,1,.1.25l-2.81-1.62a5.7,5.7,0,0,0-3.38-.68,10.23,10.23,0,0,0-4.13,1.42c-5.86,3.39-10.62,11.63-10.62,18.4,0,3.39,1.19,5.77,3.11,6.88l2.81,1.62-.27,0-.27,0a4.91,4.91,0,0,1-.53,0l-.26,0c-.26,0-.51,0-.76,0l-.23,0h0l-.46-.08a4.92,4.92,0,0,1-.55-.14l-.2-.07a2,2,0,0,1-.26-.09,2.21,2.21,0,0,1-.27-.12l-.24-.11Z" style="fill:#f5f5f5"></path><path d="M324.62,336.79c-2.14-1.24-3.46-3.89-3.47-7.66,0-7.55,5.31-16.73,11.84-20.51,3.27-1.89,6.23-2.07,8.38-.83a6.61,6.61,0,0,1,2.84,3.63l-2.81-1.62a5.7,5.7,0,0,0-3.38-.68,10.11,10.11,0,0,0-4.13,1.43c-5.86,3.38-10.62,11.62-10.62,18.39,0,3.39,1.19,5.77,3.11,6.88l2.81,1.62A6.61,6.61,0,0,1,324.62,336.79Z" style="fill:#e0e0e0"></path></g><path d="M354.11,342.29c0,4.62-.07,7.26-1,9.42-.67,1.53-3.61,2.45-4.37-.88-.68-3-.46-6.38-3.18-4.95-2,1.05-6.41,1.3-6.41-5.18a7.48,7.48,0,0,1-1.06-4.23,18.91,18.91,0,0,1,2.05-8s8.79,3.93,11.81,6.83C353.37,336.67,354.11,337.66,354.11,342.29Z" style="fill:#BA68C8"></path><path d="M345.85,332.52c-.59-.11-1.58-.31-1.76.44,0,.41.38.66.66.88,1,.84,2.33,1.42,3.07,2.53.16.31.2.92-.27,1s-1.2-.89-1.6-.1c-.47.95.06,2.05-.07,3-.14.82-.77.21-1.13.72a3.1,3.1,0,0,0-.19,2.06c.14.56.48.54.64,0,.08-.25.09-.74.49-.66s.52.8,1.05.39.43-1.42.5-2c0-1.67,1-2.09,2.16-.93,1.65,1.84,1.66,4.49,1.85,6.83,0,.46.16,1.19.69,1.37,1.21.05,1.3-2,1.36-2.88.05-2.94.43-6.28-1.54-8.72A12.35,12.35,0,0,0,345.85,332.52Z" style="fill:#fff;opacity:0.30000000000000004"></path><path d="M352.34,349.25c-.94-.86-2.36,2-1.29,2.48.81.33,1.59-.75,1.59-1.43A1.51,1.51,0,0,0,352.34,349.25Z" style="fill:#fff;opacity:0.30000000000000004"></path><path d="M341.66,345.65a4.78,4.78,0,0,1-.79-3.42,11.1,11.1,0,0,0-.18-3c-.18-.64-1.15-1.73-.27-2.21.26-.14.79.05.93-.31.2-.51-.6-1.38-.91-1.71s-.48-.48-.22-.73.86,0,1.13.07.89.27.89-.17-.89-1-1.18-1.19c-.7-.54-1.4-1-2.15-1.45a16.6,16.6,0,0,0-.83,4.93,7.48,7.48,0,0,0,1.06,4.23c0,4.2,1.84,5.57,3.69,5.73A3,3,0,0,1,341.66,345.65Z" style="opacity:0.15"></path><g style="opacity:0.15"><path d="M350.43,352.68a2,2,0,0,1-1-1.18,11.79,11.79,0,0,1-.33-4.39c0-.81.12-1.61.16-2.41,0-.42.11-1.3-.17-1.66-.84-1.11-2.12,1.93-3,2.62,2.2-.76,2,2.38,2.68,5.17.45,2,1.65,2.44,2.7,2.2C351.16,352.83,350.72,352.83,350.43,352.68Z"></path><path d="M345.67,345.79v0l.06,0Z"></path></g></g></g><g id="freepik--Earth--inject-8"><g id="freepik--World--inject-8"><path d="M76.71,333.58A143.31,143.31,0,1,0,50.3,203.43,143.3,143.3,0,0,0,76.71,333.58Z" style="fill:#BA68C8"></path><path d="M76.71,333.58A143.31,143.31,0,1,0,50.3,203.43,143.3,143.3,0,0,0,76.71,333.58Z" style="fill:#fff;opacity:0.5"></path><path d="M49.42,259.55c-.35-.37-3.2-4.35-3.16-4.39a.52.52,0,0,0,.18-.55c-.06-.17-.84-.63-1.41-1.17.12,1.75.28,3.5.47,5.25.64.62,1.63,1.18,2.12,1.6.64.55,1.9,2.55,2.69,2.44C51.67,262.53,49.79,259.93,49.42,259.55ZM77.8,155.13a4.65,4.65,0,0,0,2,.18,1.51,1.51,0,0,1,.87.16c.74.49-.56,2.59,0,3.21.36.37,1.16.15,1.75.08a12.12,12.12,0,0,0,2.71-.41,8,8,0,0,0,1.65-.83,29.5,29.5,0,0,1,4.1-1.75,2.33,2.33,0,0,0,1.74-2.55c-.08-1-1-.93-2-.51-1.43.56-3.05,1.45-3.47,1.59s-.63.12-.5-.19c.25-.62,2-1.33,2.28-1.5.68-.36,1.36-.76,2-1.13,1.11-.61,2.39-1.17,2.93-1.44a6.45,6.45,0,0,0,1-.59,6.26,6.26,0,0,0,1.36-1.25c.69-1.06,0-1.5.69-2.45A7.89,7.89,0,0,1,99,144a23.78,23.78,0,0,0,2.12-1.67c1.25-1.26,1.06-2.6,1.92-4.06a9.2,9.2,0,0,1,1.82-2.16c1-.9,2.42-2,3.18-2.67l1.36-1.29a10.19,10.19,0,0,0,1.48-1.74c.29-.43.53-.93.8-1.35a3.35,3.35,0,0,1,.92-1A6.88,6.88,0,0,0,115,125c.56-1.66-.63-1.14-.93-1.45-.51-.52-1.27-.37-2.1-.15-1.82.49-4,1.64-6.09,2.45q-4.17,2.93-8.18,6.16c-2.29,1.86-4.49,3.8-6.63,5.77a4.14,4.14,0,0,0,1.57.39c1.3.23,3.29-1.36,4.91-2.08.73-.32,2.93-1.57,3.13-.88.33,1.06-2.11,2.62-2.63,2.93a3.24,3.24,0,0,0-1.13,1c-.56.9-1.51,2.12-2.24,1.73a3.37,3.37,0,0,0-1.37-.62.93.93,0,0,0-.93.6c-.41.82-1.73,2.23-2.06,1.35-.19-.51-.22-1.26-.67-1.45s-.84-.07-1.16-.27l-.17-.14q-3.19,3.09-6.16,6.33a3.16,3.16,0,0,0,.62.59,4.14,4.14,0,0,0,2.66.55,7.27,7.27,0,0,0,1.51-.44c.6-.23,2-1.32,2.37-1.19s-.19,1.61-.7,2.44A13,13,0,0,1,85.37,152c-1.94,1.35-3.11,1.6-4.47,1.46-.47,0-2.36-.38-3,.4S77.42,154.91,77.8,155.13Zm-8.73,15.36c1.59.7,3.3-1.17,4.2-2.86,1.15-2.14-1.08-2-.27-2.8.56-.56,1.26-1.23.93-1.53-.09-.1-.29-.08-.39-.17s-1.08,0-2.61,1-1.8,2.6-2.91,3.23S68,170,69.07,170.49Zm5.45-11.06c.19-.35,1.23-2.39.72-3.2-.25-.39-.7-.29-1.17,0-.55.71-1.07,1.44-1.61,2.17a5.66,5.66,0,0,0,.57,1.32C73.33,160.5,74.33,159.77,74.52,159.43Zm40.08-29.82c-.52,1.65-2.37,1.5-3,1.86a4.84,4.84,0,0,0-.91.7,4.71,4.71,0,0,0-.93,2.89c.06.34,0,.64-.87,1.58a26.6,26.6,0,0,1-3.61,3.16,6.63,6.63,0,0,0-2.33,3.14c-.49,1.3,0,1.22.36,1.58a1.83,1.83,0,0,1,.46.66c.2.46.38,1.75,1,1.87s2.37-.87,3.7-1.53c2.24-1.13,4.38-2,5.68-.15a4.6,4.6,0,0,1,.78,2.13,22.23,22.23,0,0,1-.71,5.87,4.33,4.33,0,0,0-.05,2.57c.68,1.31,2.34,1.12,3.06,2.62.56,1.19.28,3-.32,4.59-.68,1.81-1.66,2.54-2.49,4.1s-.34,3.12-.41,4.63a14.5,14.5,0,0,0,.9,5.37,42.58,42.58,0,0,0,2.3,5.39,6.91,6.91,0,0,0,1.26,1.84c.84.79,2.93.76,4.35.26a4.82,4.82,0,0,0,2.39-1.79c1.39-2,.76-4.9,1.16-7.28a6.11,6.11,0,0,1,2.75-4.42c1.3-.85,3.08-1.53,4.09-3.08.83-1.27,1.21-3.16,2.11-4.34,1.21-1.59,3.32-1.76,4.76-2.58,1-.56,3-1.86,3-3.42,0-.84-.34-1.24,0-2.08a3,3,0,0,1,1-1.2,7.72,7.72,0,0,1,.75-.41c.42-.24.47-1.31.09-1.8-.25-.33-.54-.64-.68-.86-1-1.72-1.31-3.17,0-4.35,1.09-1,3-2.95,2.28-5.16-.42-1.32-1.23-1.73-1.36-3.24a5.41,5.41,0,0,1,.11-1.68,15.44,15.44,0,0,1,1.14-2.64,1.78,1.78,0,0,0,0-1.53c-.46-1-1.44-1-2-1.54-2.88-2.94,4.93-10.07,4-11.5a1.24,1.24,0,0,0-.79-.41,7,7,0,0,0-1.87-.07,3.33,3.33,0,0,0-1,.28,3.24,3.24,0,0,0-1.11,1.22c-.55.84-1.26,1.79-1.53,1.55-.1-.09-.18-.33-.42-.63-.68-.86-.67-.14-1.34.32-.33.23-1.53.47-1.72-.6s.83-2.32,1.11-2.94a2.67,2.67,0,0,1,.88-1.16c.56-.39.35-1.84-.67-2.58a6.26,6.26,0,0,0-3.17-1.07,9.56,9.56,0,0,0-6.2,1.45,14,14,0,0,0-3,2.29c-1.28,1.29-2.37,4.06-3.82,5.53a2.34,2.34,0,0,1-2.5.65c-1.49-.26-3.4-.58-5.71,2.43C114,128,115.11,128,114.6,129.61ZM320.78,259.32a7.57,7.57,0,0,0,1,4.18,7.33,7.33,0,0,0,1.64,2.61c1.47,1.22,3.59,1.64,5.18-.21a3.59,3.59,0,0,0,.6-1c.25-.6.5-1.78.84-2.51.26-1.94.47-3.89.65-5.83a2.28,2.28,0,0,1-.12-2.47c.66-1.34.64-3.09-.77-3.16s-1.9,1.43-2.81,2.63a28.64,28.64,0,0,1-3.68,3.91C322.46,258.21,320.93,257.66,320.78,259.32ZM173.37,123.7c.4.35.78.83,1.17,1.2a6.67,6.67,0,0,0,1.53,1.07,18.31,18.31,0,0,1,1.86,1.11,1.31,1.31,0,0,1,.22.25c.24.36.09.29.09.57,0,.52.37.79.9,1a13.42,13.42,0,0,1,1.33.71c.74.41,2.07.48,2.22-.27a5.79,5.79,0,0,0,0-1.5,10.71,10.71,0,0,1-.13-2.5,3.33,3.33,0,0,0,0-.35c0-.2.44-.49,1.08-.22.44.18.9.44,1.16.54s.36.13.46.19c.26.13.29.52.29.65a.45.45,0,0,0,.13.25,1.08,1.08,0,0,0,.51.26,6,6,0,0,0,1.84.48,2.34,2.34,0,0,0,.71-.09.71.71,0,0,0,0-1.22A20.57,20.57,0,0,1,186,124.7a6.59,6.59,0,0,1-1.59-1.4c-.87-1.06,0-1.36.64-1.43a8.76,8.76,0,0,0,1.65-.32,3.53,3.53,0,0,0,2-1.42,1.67,1.67,0,0,0-.19-1.29l-.1-.11a2.36,2.36,0,0,0-2.29-.45c-.88.15-1.86.28-2.78.35a5.62,5.62,0,0,1-1.24.09,3.22,3.22,0,0,0-1-.08,3.92,3.92,0,0,0-1.49.81,3,3,0,0,1-1.79.71c-.39,0-1-.14-1,.34,0,.7.95,1.26,1.18,1.92.17.49-.44.35-.86,0s-.46-1-.84-1.3-.61-.15-.65.07.07.9-.66.51c-.41-.22-.62-.56-1.07-.65-.76-.15-2.34.55-1.56,1.79C172.64,123.26,173,123.41,173.37,123.7Zm59.52,19.49a19.75,19.75,0,0,0,2,1,2.51,2.51,0,0,0,2.51-.28c.39-.41-.27-1.29-.67-1.92-.15-.25-.33-.47-.48-.7a6.94,6.94,0,0,1-.86-2.48,5.75,5.75,0,0,1,1.37-4.46,17.87,17.87,0,0,1,3.92-3.22c.68-.42,1.4-.8,2.12-1.17l1.34-.64a7.46,7.46,0,0,0,1.1-.36A1.13,1.13,0,0,0,245,127a1.55,1.55,0,0,0-.46-.19,1.37,1.37,0,0,0-1.11.23,9.43,9.43,0,0,1-2.91,1c-4.22.79-7.51,2.66-8.56,6.62a20.5,20.5,0,0,0-.87,4.26c0,.53,0,1.07-.52,1.2-.35.09-.5.23-.32.69A5.26,5.26,0,0,0,232.89,143.19ZM159.6,167.5c.77-2.08-1.93-4.87-2.93-4.62-.6.16-1.13.79-1.61,1.06a10.87,10.87,0,0,1-2,.41c-1.09.24-2,1.91-2.92,1s-1.31,2.46,0,4.29C153.26,173.78,158.43,170.64,159.6,167.5ZM325.42,271.8a22.15,22.15,0,0,0-3.6.35,4.58,4.58,0,0,1-2-.13,2,2,0,0,1-.9-.62c-.56-.69-.42-1.74-.41-2.77a3.86,3.86,0,0,0-1.1-2.82c-.28-.33-.56-.7-.85-1-.47-.51-1.09-.71-1.54-1.25a3.18,3.18,0,0,1-.89-2,2,2,0,0,1,.45-1.24,3.65,3.65,0,0,0,.2-2.74c-.21-.52-.47-1-.63-1.38a15.45,15.45,0,0,0-1.12-1.95c-.19-.32-.47-.5-.67-.81a15.43,15.43,0,0,1-2.35-7.57c0-.79.23-1.6.9-1.63a1.23,1.23,0,0,1,.6.18,6.67,6.67,0,0,1,1.32,1.28c.35.43.7.84.81.82,1.35-.23,1.87,4.72,3.49,2.52.5-.69,1.25-1.12,1.78-1.8a7.66,7.66,0,0,0,.61-.88,7.29,7.29,0,0,0,.92-2.81,6.54,6.54,0,0,0-.15-1.87,9.78,9.78,0,0,0-1.71-3.5,10.12,10.12,0,0,0-1.36-1.66,2.07,2.07,0,0,1-1-1.54c-.22-1.86,1.16-4.12,2.82-3.7a2.58,2.58,0,0,0,2.86-.83,12.53,12.53,0,0,1,2.93-2.93c1.56-.87,3.64-1.8,4.77-3.31l.31-.41a144.62,144.62,0,0,0-3.49-17.51c-.16-.61-.44-1.63-.69-2.49a143.75,143.75,0,0,0-48.21-72.43c-.27.06-.57.1-.88.14a20.48,20.48,0,0,0-4.11.63,3.74,3.74,0,0,0-2.11,2.37,3.43,3.43,0,0,1-1,1.68,3.66,3.66,0,0,1-2.15.61c-.58,0-1.71.08-1.4,1s1.86,2,2.45,2.83c1.32,1.81-1.47.48-2.18.13a7.53,7.53,0,0,0-2.46-.83c-.47,0-1.56-.27-1.54.31s.64,1.26.95,1.72c.47.67.55.91,0,1.12s-1.12.34-1.66.54a5.41,5.41,0,0,1-2.8.37c-1.27-.27-2.29-1.51-3-2.76a3.84,3.84,0,0,0-1.37-1.65,3.45,3.45,0,0,0-1.76-.64c-1.22,0-1.29,1.17-.94,2.36s-.72,1.63-.27,2.74a7.65,7.65,0,0,0,2.45,2.71c.77.65,2.1,1.54,1.86,2.4-.35,1.24-2.08.46-3.27-.16-1.62-.84-3.25-1.45-4.88-2.3a9.69,9.69,0,0,0-4.33-1.05c-.78,0-1.22.44-.23,1.31.46.4,2,1.07,1.9,1.86s-1.83.73-2.37.84a19,19,0,0,1-4.72.59c-1.24,0-2.59-.46-3.69-.12a5.71,5.71,0,0,0-1.47.66,3.75,3.75,0,0,0-1.26,1.8.76.76,0,0,1-.38.45,2.07,2.07,0,0,1-.59.23,1.83,1.83,0,0,1-1.83-1.41c-.11-.72-.16-1.5-.85-1.86a3,3,0,0,0-2.44,0,1,1,0,0,0-.4.79c0,.57.46,2.08.43,3.16a2.42,2.42,0,0,1-.55,1.63,6,6,0,0,1-1.18.73,2.73,2.73,0,0,0-1.09,1.57c-.47,1.25-.82,2.37-2,2.75s-2.14,0-3.44-1.2a29.07,29.07,0,0,1-2.7-2.63c-1.22-1.48,1.13-.92,1.75-.85.93.11,1.81,0,2.72,0a9.58,9.58,0,0,0,2.23-.15c.58-.12,1.61-.35,1.43-1.31-.39-2.11-4.82-4-6.11-4.63-.62-.3-1.24-.57-1.86-.83-1-.42-2.78-1.1-3.9-1.51a5.81,5.81,0,0,0-2-.44c-1,0-1.65,1.47-3-.41a3.06,3.06,0,0,0-2.35-1.66,10,10,0,0,0-5.79.91,5.72,5.72,0,0,0-1.32,1c-.65.66-1.27,1.89-1.79,2.25a1.9,1.9,0,0,1-1.12.32c-2.45,0-3.06,2.28-3,5.24,0,.79.15,1.69.11,2.46a4.94,4.94,0,0,1-.28,1.29c-.23.66-.8,2.18-1.22,3.44-.26.76-.54,1.53-.81,2.34-.74,2.24-1.63,4.55-2.56,7a8.61,8.61,0,0,0-.62,5.48,5.56,5.56,0,0,0,2.73,3.11,3.76,3.76,0,0,0,3.88-.19c1.74-.88,2.64,0,3.77,2.06a5.94,5.94,0,0,0,1.85,2.53,3.3,3.3,0,0,0,2.82.14c.94-.46,1.15-1.58.88-2.83a3.63,3.63,0,0,1,.36-3,3,3,0,0,0-.13-2.92c-.76-1.62-2.24-3.63-2.62-4.72a4.69,4.69,0,0,1-.28-1.94,8.07,8.07,0,0,1,.28-1.61c.23-.81,1.22-2.36,1.9-3.78a9.18,9.18,0,0,0,.84-2.9,4.68,4.68,0,0,1,.32-1.37,2,2,0,0,1,2-.76,1.86,1.86,0,0,1,1.22.87,4.19,4.19,0,0,1,.05,3.15c-.34,1.07-1.2,1.41-1.62,2.39s-.15,2.58.07,3.91.37,2.91,1.2,3.88c1,1.22,2.71.68,3.82.46.5-.1,1.07-.22,1.65-.29a6,6,0,0,1,2.47.2c.41.19.93,1.23.56,1.51a2.2,2.2,0,0,1-.78.28c-1.1.29-2.28.3-3.39.53-.7.16-1.84.23-1.81,1.36,0,.86.91,1.46,1.42,1.93s1.11,1,1.06,1.77a.68.68,0,0,1-.73.65,3.34,3.34,0,0,1-1.67-.85c-.33-.27-.78-.82-1.13-.58-.55.39.06,2.46.18,3.12a5.91,5.91,0,0,1-.09,3.4c-1,2-3.41,2.27-5.33,2.43a19.6,19.6,0,0,1-3.57-.24,6.13,6.13,0,0,1-2.3-.46c-1.69-.94-1.22-4-1.78-5.64-.66-2-2.19-.34-2.35.9-.24,2,1.56,4,1.16,5.86-.27,1.29-1.76,1.52-2.68,2-1.26.69-1.75,2.2-1.75,3.81a3.69,3.69,0,0,1-1,2.08c-.57.86-1.24,1.58-1.83,2.37a2.63,2.63,0,0,1-1.74,1.16c-.47.06-1.19-.21-1.5.16s0,1.08-.66,1.44-1.71.17-2.49.38c-.51.14-1.24.62-.65,1.22a8.17,8.17,0,0,0,2.27,1c1.33.62,1.94,2,2.29,3.53.47,2.11.17,3.87-1.81,4.31s-3.9.27-5.75,1.43c-1.61,1-1.13,4.3-.88,6.15a3.53,3.53,0,0,0,.85,2.06c.38.49.6,1.19,1.08,1.56a2.81,2.81,0,0,0,2.18.34,2.57,2.57,0,0,1,2.16.49,2.47,2.47,0,0,0,.49.29c.29.11.58-.69,1.12-.89a4,4,0,0,1,1-.11,3.4,3.4,0,0,0,1-.07c.33-.12.42-.48.65-.6a3.31,3.31,0,0,0,1.39-2.6c.09-.52.12-1.06.23-1.57a17.17,17.17,0,0,1,.63-1.69,7.48,7.48,0,0,1,.31-1.26c.37-.78,1-.75,1.68-1.06a2.19,2.19,0,0,0,1.24-2.12c0-.79-.11-1.67.58-2.08s1.3,0,1.91,0c1.07-.1,1.82-1,2.64-1.57,1.65-1.23,3.16-.85,4.52.89a16.19,16.19,0,0,0,2,2.23c.57.49,1.23.72,1.8,1.22s1.55,1.06,2.23,1.66.83,2.08.74,3.1c0,.41-.27,1.09.07,1.4s.73-.1.93-.39c.65-.93.37-1.93.21-3.11-.08-.53-.24-1.18.18-1.39.18-.09.42,0,.65,0s.16-1.09-.65-1.56a3.06,3.06,0,0,0-1.49-.47c-.38,0-1.51-1.18-1.85-1.45a22.13,22.13,0,0,1-2.45-2.21,4.53,4.53,0,0,1-1.36-2.26c-.18-1.32,1.14-1.38,1.93-.9.64.4.8,1.15,1.23,1.77.95,1.37,2.5,1.46,3.73,2.08.87.44,1,1.16,1.43,2.07a12.48,12.48,0,0,1,1.11,2.07,1.61,1.61,0,0,0,.55,1,9.58,9.58,0,0,0,1.22.9,5.88,5.88,0,0,1,1.18.75c.36.39.22.36.22.81,0,1,.07,2,1,2.37s.9-1.36,1.15-2.1a1.83,1.83,0,0,0,.05-1.57c-.24-.49-.81-.74-1.08-1.21-.7-1.19.49-1.22,1-1.71s1.3-1.61,2.39-1c.62.35.56.8.6,1.45a5.68,5.68,0,0,0,.73,2,7.64,7.64,0,0,0,.78,2,5,5,0,0,0,4.25,1.85c.63-.08,1.15-.67,1.81-.59.27,0,.49.24.75.32a3.09,3.09,0,0,0,1.42,0c.63-.12,1.2-.41,1.83-.5,1-.13,1.37.12,1.27,1.34a42.78,42.78,0,0,0-.26,5.57c0,.7.44,2.39.08,2.94s-1.59-.29-2.12-.48a9.47,9.47,0,0,0-4.81-.16,19,19,0,0,1-2.49.39,4.45,4.45,0,0,1-2.37-.17c-1.33-.79-4.79-3.1-5.81-.89-.68,1.48.11,4-2,3.87a9.82,9.82,0,0,1-2.92-1,22.82,22.82,0,0,0-4.45-1.17,5.35,5.35,0,0,1-2.91-1.3c-1.15-1.13.4-1.74.41-3a3.48,3.48,0,0,0-1.45-2.92,4.15,4.15,0,0,0-2.63-.11c-.45.07-.87,0-1.32.06a5.56,5.56,0,0,0-1.41.57,15,15,0,0,1-3.13.73c-.56.09-1.12.17-1.67.27-.33.06-1.2.07-1.43.35-1.23,1.44-2.81,3-4.76,3.15-1.23.08-2.31-.18-3.45.49a11.31,11.31,0,0,0-2.85,2.68c-.7.84-1.35,1.73-2,2.63-.75,1.06-.53,2.29-.34,3.62a3.42,3.42,0,0,1-.39,2.26,7.64,7.64,0,0,1-2.41,3,7.41,7.41,0,0,0-2.76,3.1,20.79,20.79,0,0,0-1.17,3.93,11.67,11.67,0,0,0,1.45,8.15c.42.63-.18,2.84-.24,3.58a6.93,6.93,0,0,0,.73,4,6.39,6.39,0,0,0,1.8,2.08c1.45,1.1,2.46,2.81,3.76,4.22a26.33,26.33,0,0,0,4,3.64,9.84,9.84,0,0,0,6.11,2,5.92,5.92,0,0,0,3-.85,4.13,4.13,0,0,1,1.56-.61,9.61,9.61,0,0,0,3.23-1.28c.52-.39,1-.82,1.48-1.2a3.74,3.74,0,0,1,3.48-1,5.34,5.34,0,0,1,1.52.74,14.79,14.79,0,0,0,2.95,1.62,4.14,4.14,0,0,0,1.55.16,3.77,3.77,0,0,1,2.5.77c2,1.49,1.33,4,.6,6.1s.34,3.81,1.39,5.24c.5.69.89,1.41,1.4,2.05a7.46,7.46,0,0,1,1.47,2.29c.27.84.59,1.59.88,2.37a18.81,18.81,0,0,1,.88,5c0,.83,0,1.67-.06,2.5,0,.41-.05.83-.09,1.24a13.38,13.38,0,0,1-.37,2.25,7.61,7.61,0,0,0-.25,1,12.63,12.63,0,0,0-.09,2.54c.07,1.41.13,3.88.22,5.29a11.87,11.87,0,0,0,.38,2.49,62.19,62.19,0,0,0,4.26,10.1c.75,1.56,1.43,3.19,2.15,4.73.37.78.66,1.64,1.09,2.4a11.89,11.89,0,0,1,.85,2.67c.58,1.84,1.34,2.92,2.89,3.16a6.76,6.76,0,0,0,3.78-1,16.19,16.19,0,0,0,6.52-5.75,20.65,20.65,0,0,0,2.3-5.54,12.41,12.41,0,0,0,.61-2.77c.07-1,.06-2,.21-3,.22-1.53.37-3.2.68-4.71.49-2.37.59-4.38,2-6.31a27.62,27.62,0,0,1,2.12-2.47c1.16-1.31,3.31-3.48,3.08-5.83-1.06-11.14-5.32-19.37,3.6-28.78,2.3-3.28,5.15-8.62,5.57-13.3.2-2.22-1.41-3.41-2.7-2.69a21.27,21.27,0,0,1-2.39,1.19c-.75.31-1.54.51-2.3.77a3.86,3.86,0,0,1-2.33-.26,2.32,2.32,0,0,1-1.65-1.43c-.39-.81-.39-1.67-.71-2.49s-1-1.17-1.59-1.65a15.55,15.55,0,0,1-3.5-3.8,19.36,19.36,0,0,1-2-5,8.47,8.47,0,0,0-1.85-3,23.25,23.25,0,0,1-2-3c-.61-1.05-2.82-4.66-1.39-5.66,1.12-.79,2.48,2.58,3,3.45,1.07,1.71,2.18,3.26,3.3,4.79l1.75,2.34c1,1.3,2.13,2.9,2.59,3.56.28.4.56.8.83,1.21a10.24,10.24,0,0,1,1.52,2.38c.95,3.44,2.25,5.2,4.17,4.83,1.76-.34,4.12-2.53,5.62-3.64a55.29,55.29,0,0,0,7.48-6.55,12.55,12.55,0,0,0,1.33-2.58,8.94,8.94,0,0,0,1.1-3.12,1.92,1.92,0,0,0-1.07-2.12c-.54-.25-1.1,0-1.56-.28s-.77-1.31-1.23-1.82c-.89-1-1.62-.11-2.39.49s-2.39,1.9-3.3,1.31c-.65-.41-.4-1-.76-1.6s-.7-.24-1.15-.32c-1.13-.21-1.78-1.76-2.43-2.74-.5-.75-1.6-2.42-1.43-3.43.28-1.69,2.25.27,2.81.78a22.4,22.4,0,0,1,2.15,1.71,3.81,3.81,0,0,0,1.88,1.07,13.58,13.58,0,0,0,2.13.64c.55.05,1.07-.22,1.64-.1a1.91,1.91,0,0,1,.89.49,5.43,5.43,0,0,0,3.83,1.3c1.52-.19,3.05-.75,4.46-1a6.81,6.81,0,0,1,3.41-.11,6.34,6.34,0,0,1,3.31,2.65c.59,1,1.16,2.5,2.32,2.91s1.53-2.23,2.25-1.7c.38.28.47,1.3.56,1.76a17.4,17.4,0,0,0,.48,1.71l1.27,3.92a67,67,0,0,0,3,8c.58,1.22,1.45,3.06,2.64,3.33.53.13,1.25-.67,1.54-1.21a6.43,6.43,0,0,0,.47-1.81,19.9,19.9,0,0,0,.25-2.41,26.92,26.92,0,0,1,.59-4.45,14.89,14.89,0,0,1,.68-1.91,15.7,15.7,0,0,1,1.78-3.2,13.29,13.29,0,0,0,1.66-2.16c.18-.35.34-.71.51-1.06a19,19,0,0,1,1.08-2,2.44,2.44,0,0,1,.72-.77,6.4,6.4,0,0,1,1.13-.27c.76-.23.92-.89,1.52-1.33s1.29,0,1.75.43c1.29,1.17,1.55,3.28,1.94,5,.19.86.39,2,1.24,2s1.29-.6,2,0,1,2.07,1.5,3,1.34,1.23,1.59,2.32c.15.7-.12.84-.33,1.42a1.7,1.7,0,0,0,.21,1.5,3.56,3.56,0,0,1,.28,1.92,5.43,5.43,0,0,0-.24,1.83.85.85,0,0,0,.68.7,2.45,2.45,0,0,1,1.33,1.43c.14.42.27.87.36,1.18a7,7,0,0,0,.52,1.38c.09.14.18.25.27.37a3.26,3.26,0,0,1,.4,1.52,1,1,0,0,1-.36,1c-.24.15-.58,0-.93-.17s-1.24-.72-1.69-.93a2,2,0,0,0-.84-.21c-1.48.06.52,3.37.94,3.89s.75.74,1.1,1.17a4.19,4.19,0,0,1,.68,1.55,18,18,0,0,0,1.73,3.29,13.66,13.66,0,0,0,2,2.74,6.44,6.44,0,0,0,1.21,1c.12.08,1.31.54,1.32.59.25,4.26,3.5,1.23,5.12,2.36,1.28,1,2.67.45,4.06.16a5.37,5.37,0,0,0,1.09-.33c.08-.37.16-.74.23-1.11a1.69,1.69,0,0,1-1.3-.59A1.74,1.74,0,0,0,325.42,271.8Zm-92.08-61.87a15.08,15.08,0,0,1-3.88-.58c-1.83-.39-4.52.59-6.21,1.16a5.66,5.66,0,0,1-2.56.36c-1.82-.3-1.23-4.41-.72-6.4a8.07,8.07,0,0,1,1.18-2.95c1.18-1.44,4.11-.07,3.72.47s.31,1,.47,1.46.72.91,1.16.39-.41-2.7,1.06-3.72c.18-.12.37-.24.57-.35,1.56-.85,2.5,0,2.49,2.1a4.48,4.48,0,0,0,.22,1.49c.77,2.07,2.93,2.08,3,2.32s.88.43,1.61,1.13S235.14,209.82,233.34,209.93Zm15.76,5.73c-1.79-.63-2.36-3.59-2.56-5.48s-3.4-3.33-4-5.43c-1-3.72,1.81-7,4.17-7.06,1.82-.06.91,2.73.25,4.59-.24.64.12,1.16.81,1.89,1.44,1.54,3.12,2.11,4,2.79s0,1.74-.9,2.15,2.27,3,2.08,5C252.8,215.77,251,216.33,249.1,215.66Zm-58.72,1c.56-.72.35-1.38-1.51-1.1-.29,0-.68.57-.91,1.15C187.64,217.57,189.45,217.93,190.38,216.7Zm66.78,81.19a6.12,6.12,0,0,0-.73-2.66,3.61,3.61,0,0,1-.49-.56,5,5,0,0,1-.3-.53,2.5,2.5,0,0,0-.4-.57c-.26-.26-1.18.22-1.3,1.21a16.77,16.77,0,0,0-.06,1.81c-.08,2.55-2,3.93-3.06,5.88-1.45,2.72-.7,5.38-.53,8.09.11,1.77-.53,4.24.24,5.74,2.51,4.89,4.77-3.43,5.37-6A47.38,47.38,0,0,0,257.23,300C257.23,299.28,257.22,298.58,257.16,297.89ZM205,220.05a1.53,1.53,0,0,0-1.17-1.85c-.51-.17-.53.4-.48,1.05C203.44,220.1,204.68,221.36,205,220.05Zm-33.77-29.48c-.29.25-.15.66-.39.91s-1.07.15-1.48.3c-1.16.41-.1,1.59.16,2.29a2.55,2.55,0,0,1,.07,1.52c-.1.46-.38,1-.14,1.52.63,1.34,2,.34,2.85,0a4,4,0,0,0,1.94-2.79,3.73,3.73,0,0,0-.6-2.52C173.19,191.12,172,190,171.27,190.57ZM93,262a8.41,8.41,0,0,1-3.93-.91c-1.2-.55-2.62-1.21-3.75-.57-.85.49.37,1.36,1,1.73a11.63,11.63,0,0,0,1.47.7c.82.35,2,1.07,2.58,1.34a1.9,1.9,0,0,0,1.15.12c1.53-.3,3-1.44,4.7-.45.4.24,1.11,1,1.58.87l.09,0c.47-.25.27-1.14,0-1.6C96.8,261.43,94.35,262,93,262Zm84.11-65.1c.08.67-.94,1-.57,1.65s1.11.31,1.54.22c1.82-.34,4.24-1.12,5.32-2.92.42-.69,1.23-2.37.29-2.91-.35-.21-.78-.19-1.13-.47a4.91,4.91,0,0,1-1-1.37,19,19,0,0,0-1.4-2.34c-.82-1.05-2.54-1.48-2.48-3.22,0-.57.68-1.15.41-1.76-.14-.35-.51-.38-.77-.51s-1.47-1-1.42-1.51c0-.34-2.77-.32-2.41.62.53,1.39-1.75,2.09-.59,2.9l.14.1a16.92,16.92,0,0,0,.08,1.88c.18,1,1.64,1.26,1.82,2.12s1.49,0,2,.77.67,2.38-.08,2.78-.25,2-.75,2.47c-.32.29-.65.56-.27,1.1C176.08,196.81,177,196.07,177.09,196.89Zm-97.77-13.4c-.61,1.93-.62,3.67.26,4s2.94-1.19,4.43-1.77c2.13-.83.25-1.67-1.36-3C81.59,181.83,79.93,181.56,79.32,183.49Zm72.1,132.9a19.27,19.27,0,0,1-1.43-5.52c-.11-3.51,2.76-6,2.76-9.71,0-2.31-2.6-4.23-4.32-4.82s-3.91-3.3-5.78-3.06l-.6.08c-1.87.22-4.89-1.92-6.84-2.43a12.61,12.61,0,0,0-1.34-.25c-1.93-.25-4.35-2.27-5.56-4.3-1.12-1.88-2.44-3.63-4-4.3-2.17-.91-4.73,1.07-6.71-.94a9.17,9.17,0,0,0-2.89-2.15,10,10,0,0,1-3.06-1.91c-1.29-1.33-2.13-.13-3.49-.57-.79-.26-1.1-.63-2-.54a30.4,30.4,0,0,1-3.41.38c-.93,0-1.32-.44-2.12-.93-1.84-1.12-4.44.14-5.35,1.71-.44.78-.52,1.9-1,2.61-.9,1.43-3.37.61-4.86,0a8.51,8.51,0,0,1-3.07-2.11c-1-1.15-1.72-1.4-1.84-3-.09-1.16,0-2.66-1-3.58a3.61,3.61,0,0,0-2.8-.68c-.74,0-1.66.45-2.42.12a2.7,2.7,0,0,1-1.4-2.35c.11-.62.71-1,1-1.58a2.07,2.07,0,0,0,.28-.93c0-.17-.25-.85-.23-.91.54-1.33.17-2-.57-2.26-1.31-.39-3.3,1-3.44,2.63s-2.59,3-4.32,2.42c-3.39-1.08-5.58-7-5-11.18.27-1.93,2-4.72,3.67-5.12,1.34-.33,2.84.08,4.41,0,.65,0,.59-.41.53-.86-.1-.74,1.36-.86,2.4-1s3.46,0,4.73,1.54a13.53,13.53,0,0,1,1.42,2.44c.9,1.79,3.52,2.61,2.81.65-.44-1.24-1.24-2.77-1.77-4.17-.73-2,.52-4.75,1.69-5.94a21.49,21.49,0,0,0,2.1-2.17,4.46,4.46,0,0,0,1.14-2.5c0-1.09-.87-2-.91-3.22a5.78,5.78,0,0,1,.36-2.43,7.22,7.22,0,0,1,2.37-3.22c1-.71,2.8-.71,3.23-2.21s.34-2.39,1.39-3.66a10.71,10.71,0,0,1,2.26-2c1.34-.9.84,1.7,2.54,1.31a14.32,14.32,0,0,0,4.63-2.91c1.49-1.28,2-3.25,1.43-3.81s-1.69,2.85-3.39,2.66a3.3,3.3,0,0,1-.52-.13c-1.6-.59-1.58-3.22-1.87-3.14s-.3-.36.07-.58.64-3.07-1-2.24c-.27.14-.56.32-.85.51-1.56,1-1.88-.28-.33-1.32,2.45-1.65,5.5-2.23,8.34-3.26,1.71-.62,2.41.25,1.57,2.27s-1.25,3.35,0,3.48c1.73.17,3.71-.82,3.81-.15.06.44.13.84.66.35.81-.73,1.88.64,2.53-.54a1.89,1.89,0,0,0-.32-1.86c-.56-.86-1.29-2.46-2.32-2.4s-1.49-2.52-1.1-4.71c0-.23.07-.45.1-.68.29-2.19-2.46-3.65-3.84-4.66-4.08-3-2.67-3.32-4.83-7.84-.8-1.67-2.31-1.23-3.59.41-.68.87-1.39,1.52-2,1.5-1.52-.06-.87-4.68-1.9-5.05-.57-.2-1.31-.22-1.66-1.1-.58-1.58-2.21-2-3.74-1.55s-2.82,3.24-2.63,4.85-1.12,4.2-.52,5.29,1.52,3.91.43,5.71c-.64,1.07-1.62,2-2.15,3.05-1,1.92.56,4.65-.06,5.74a1.18,1.18,0,0,1-1.55.65,4.55,4.55,0,0,1-2.19-2.7c-.46-2.51.44-4.11-1.76-4.47a22.07,22.07,0,0,1-8.17-3c-1.16-.74-1.06-1.87-1.42-3.29s-1.64-1.72-.09-3.88c1-1.35,2.49-2.38,3-4.32s-1.12-1.87-.11-3.44,3.54-1.21,4.69-1.84a2.53,2.53,0,0,0,1.4-1.42c.48-1.35-.54-1.31-.79-1.94-.08-.2.3-.36.68-.47a3.9,3.9,0,0,0,1.49-.56,2.72,2.72,0,0,0,.67-.85c.18-.37.13-.64.38-1a1.84,1.84,0,0,1,.86-.62,4.94,4.94,0,0,0,2-.94,7.07,7.07,0,0,0,2.42-2.83,5.83,5.83,0,0,0,.46-2.49c-.15-.44-.72-.34-.7-1.05.07-2.34,2.55-2.58,3.36-2.82,1.23-.37,2.68-.85,2.38,1.49-.13,1-.28,3.52,1,2,.72-.83,1-1.23,1.48-.57a2.15,2.15,0,0,1,.66,2,2.78,2.78,0,0,1-1.21,1.9c-.85.69-1.69,4.08-3.11,4.46l-.69.19c-1.43.43-1.24,3.8.15,3s3.07,0,4.09,1.11c1.45,1.55,3.59,3.17,4.61,3.07,1.52-.14.4-3.36,1.13-3.7a4,4,0,0,1,1.32-.44c.25,0,.31-2,.28-2.19a2.84,2.84,0,0,0-.65-1.53c-.67-.76-1.63-.76-2-2s1-2.83,1.76-2.39a2.78,2.78,0,0,1,.86,1.34c.39.89,1.2,1.34,1.54,1.14a2.09,2.09,0,0,0,.6-.55c.45-.61.4-1.32.75-2,.56-1,1.43-.8,2-1.78a1.23,1.23,0,0,0-.44-1.87c-1.19-.78-2.5-1.19-3.63-1.89-.23-.15-.47-.24-.66-.39a3.22,3.22,0,0,1-.36-2.25,7.87,7.87,0,0,0,.11-1.49,2.22,2.22,0,0,0-.9-1.47,6.9,6.9,0,0,0-1.42-1.14c-.83-.51-2.75-.46-3.45-1.54s-1.2-2.49-2.21-2.34c-.12,0-.49.42-.66.5a1,1,0,0,1-.68.1c-.42-.08-.69-.44-1.07-.61a2.55,2.55,0,0,0-2.65.42,9.45,9.45,0,0,1-1.14.74,10.31,10.31,0,0,1-2.13.56,10.23,10.23,0,0,0-2.91,2.21,8.18,8.18,0,0,0-1.5,2c-.59,1.19-1,3-.25,3.2s2-.35,3-.34,2.78-.22,2.11,1.81c-.52,1.54-2.18,1.21-2.3,3a4.21,4.21,0,0,1-.12,1.83,7.15,7.15,0,0,1-1.19,1.66,10.39,10.39,0,0,1-1.19,1.2c-.58.45-1.4.33-1.34-.54.06-.71.71-1.3.84-2a.8.8,0,0,0-.58-1,2.14,2.14,0,0,0-.63-.14,1.87,1.87,0,0,1-1.14-.73,4.11,4.11,0,0,1-.37-.76c-.17-.46-.45-.9-.64-1.41a4,4,0,0,1,.56-3c.24-.27.51-.51.82-.87A17.23,17.23,0,0,0,79,164.06c1-1.83,1.25-3.54,0-3.33s-3.21,1.88-4,4.06a21.58,21.58,0,0,1-1.34,3.77c-.64,1.11-1.54,1.94-2.12,3.05s-.46,2-.86,3-.59.81-1.16,1.21c-1.27.89-1,3.15-2.27,4.27a3.33,3.33,0,0,1-1.32.59,4.67,4.67,0,0,1-2.31.17c-.22,0-.51-.1-.37-.58.2-.7.84-.91,1.22-1.22a6.7,6.7,0,0,0,2.07-4.54c-.1-.78-.81-.7-1.22-1a3.08,3.08,0,0,1-.78-3q-2.91,4.94-5.39,10.07a.68.68,0,0,1,.63.41c.16.36,0,.82-.26,1.43a10.39,10.39,0,0,0-.42,1.16c-.19.63-1,3-1.79,2.57a3,3,0,0,1-.53-.44,143.09,143.09,0,0,0-11.81,66.17,1.2,1.2,0,0,1,1.2.25c1.35,1,2.26,4,3.61,5,2.25,1.76,4.87,4,6.25,6.59.9,1.72,2.18,4.28,3.8,5.17,3.15,1.74,6.83,3,9.94,2.6s6.7,4.79,9.58,3c.35-.21,2.07,2.23,2.32,2.55a10.9,10.9,0,0,0,3.44,2.76,22.8,22.8,0,0,0,4.24,1.63c2.66.84,5.87,2.2,5.5,6.17-.23,2.4-1.16,4.71-1.68,7.06s-.87,4.93.51,7.23,3.44,3.81,4.81,6,1.08,5.16,2.52,7.57c1.8,3,4.22,3.45,7.33,4.53a10.51,10.51,0,0,1,5.79,4.44A92.69,92.69,0,0,1,122.39,340c2.88,6.72,5.29,13.9,9.58,19.83a30.28,30.28,0,0,0,7.43,7.59c1.93,1.31,3.78,1.29,3.61-1.48-.1-1.7-1.49-3.05-2.19-4.55s-.11-2.85-.21-4.44c-.07-1.33-1.33-3.28-.45-4.4s2.29-.44,2.75-1.88c.57-1.82-1.39-2.57-1.76-3.95s2-1.51,2.7-2.79c.44-.81.16-1.84.45-2.69.23-.68.59-.81,1-1.31a7.49,7.49,0,0,0,1.12-3.37c.28-1.93-1.66-4.05-1-5.89.47-1.31,2.28-2.75,3.65-3.5,1.06-.59,1.8-.7,2.42-2.17a9.6,9.6,0,0,0,.18-5.41C151.29,318.44,151.68,317.21,151.42,316.39Zm-81.64-94c1.38-1.41,3.81-4.54,5.21-3.86a5.25,5.25,0,0,1,1.69,1.94c.94,1.48,3.25,1.91,4.59,2.49s-.43,1.94-.58,3.24-1,1.83-1,1.11c0-.44,0-.78-.64-.5-.85.4-.67-.26-.46-1,.29-1-2-1.73-2.56.31a14,14,0,0,0-.28,1.68c-.28,2.08-2.26,2.13-2,.06,0-.26.08-.52.13-.79.41-2.06-.34-4.44-2-4.19C70.06,223.15,68.3,223.87,69.78,222.36Z" style="fill:#fff;opacity:0.5"></path><path d="M225.47,116.28c-91.24-26.45-108.36,35.74-60,75s131.22,52.28,142.42,26.45S293.29,136,225.47,116.28Z" style="fill:#fff;opacity:0.1"></path><path d="M124,331.93C64.46,283,61.12,197.09,91.27,137.51a143.29,143.29,0,0,0,187,217c3.74-3,7.28-6.22,10.63-9.53C242.18,365.71,176.38,375,124,331.93Z" style="fill:#BA68C8;opacity:0.2"></path></g></g><g id="freepik--Thermometer--inject-8"><g id="freepik--thermometer--inject-8"><circle cx="74.02" cy="366.06" r="30.82" transform="translate(-299.26 354) rotate(-76.72)" style="fill:#e0e0e0"></circle><path d="M74,195.65h0A15.15,15.15,0,0,0,58.87,210.8V342.33h0c0,2.23,1.48,4.47,4.44,6.18,5.91,3.42,15.5,3.42,21.42,0,3-1.71,4.44-3.95,4.44-6.18h0V210.8A15.15,15.15,0,0,0,74,195.65Z" style="fill:#ebebeb"></path><circle cx="74.02" cy="366.06" r="20.91" transform="translate(-299.17 380.49) rotate(-80.78)" style="fill:#BA68C8"></circle><circle cx="74.02" cy="366.06" r="20.91" transform="translate(-299.17 380.49) rotate(-80.78)" style="fill:#fff;opacity:0.1"></circle><path d="M74,204.77h0a7,7,0,0,0-7,6.95v137.4h0a3.43,3.43,0,0,0,2,2.83,10.85,10.85,0,0,0,9.83,0,3.45,3.45,0,0,0,2-2.83h0V211.72A7,7,0,0,0,74,204.77Z" style="fill:#fafafa"></path><path d="M74,219.74h0a7,7,0,0,0-7,6.95V349.12h0a3.43,3.43,0,0,0,2,2.83,10.85,10.85,0,0,0,9.83,0,3.45,3.45,0,0,0,2-2.83h0V226.69A7,7,0,0,0,74,219.74Z" style="fill:#BA68C8"></path><path d="M76,195.77a15.18,15.18,0,0,0-13.22,15V348.17A9.8,9.8,0,0,1,60,345.62a5.73,5.73,0,0,1-1.11-3.29V210.8A15.15,15.15,0,0,1,74,195.64,13.84,13.84,0,0,1,76,195.77Z" style="fill:#263238;opacity:0.2"></path><path d="M104.83,366.06a30.82,30.82,0,1,1-46-26.82v3.09A5.73,5.73,0,0,0,60,345.62a9.8,9.8,0,0,0,2.76,2.55c-9.51,7.5-8.19,33.53,13.22,34.72,24.13,1.35,28.86-22.24,26.27-29.23A30.73,30.73,0,0,1,104.83,366.06Z" style="fill:#263238;opacity:0.2"></path><path d="M85.23,208.28A4.26,4.26,0,1,1,81,204,4.26,4.26,0,0,1,85.23,208.28Z" style="fill:#fff;opacity:0.5"></path><circle cx="89.17" cy="360.6" r="10.21" style="fill:#fff;opacity:0.30000000000000004"></circle><path d="M89.17,325.39v-3.74c-.42,7.18-11.79,8.89-16.2,8.94a.61.61,0,0,0,0,1.21h0C78.51,331.74,86.21,329.92,89.17,325.39Z" style="fill:#455a64"></path><path d="M89.17,308.46v-3.74c-.42,7.17-11.79,8.88-16.2,8.93a.61.61,0,0,0,0,1.22h0C78.51,314.81,86.21,313,89.17,308.46Z" style="fill:#455a64"></path><path d="M89.17,291.52v-3.74c-.42,7.18-11.79,8.89-16.2,8.94a.59.59,0,0,0-.6.61.6.6,0,0,0,.6.6h0C78.51,297.87,86.21,296.05,89.17,291.52Z" style="fill:#455a64"></path><path d="M89.17,274.59v-3.74c-.42,7.17-11.79,8.88-16.2,8.93A.61.61,0,0,0,73,281h0C78.51,280.93,86.21,279.12,89.17,274.59Z" style="fill:#455a64"></path><path d="M89.17,257.65v-3.74c-.42,7.17-11.79,8.89-16.2,8.93a.61.61,0,0,0,0,1.22h0C78.51,264,86.21,262.18,89.17,257.65Z" style="fill:#455a64"></path><path d="M89.17,240.71V237c-.42,7.18-11.79,8.89-16.2,8.94a.61.61,0,0,0,0,1.21h0C78.51,247.06,86.21,245.25,89.17,240.71Z" style="fill:#455a64"></path><path d="M89.17,223.78V220c-.42,7.17-11.79,8.89-16.2,8.93a.61.61,0,0,0,0,1.22h0C78.51,230.13,86.21,228.31,89.17,223.78Z" style="fill:#455a64"></path></g></g><g id="freepik--speech-bubble--inject-8"><g id="freepik--speech-bubble--inject-8"><g id="freepik--Bubble--inject-8"><path d="M87.88,45.18c-5.14-2.91-12.2-2.47-20,2-15.69,9.06-28.41,31.09-28.41,49.2,0,9,3.18,15.41,8.32,18.38l9.7,5.58c5.14,3,12.23,2.53,20.07-2C93.25,109.33,106,87.3,106,69.18c0-9-3.16-15.38-8.27-18.35C95.54,49.58,90.05,46.42,87.88,45.18Z" style="fill:#37474f"></path><path d="M40.52,87a45.37,45.37,0,0,0-1.05,9.41c0,9,3.18,15.41,8.32,18.38l9.7,5.58c5.14,3,12.23,2.53,20.07-2a45.62,45.62,0,0,0,7.61-5.6Z" style="fill:#263238"></path><path d="M97.66,97.16c5.13-8.9,8.31-18.93,8.31-28,0-18.11-12.72-25.46-28.41-16.4S49.15,83.87,49.15,102s12.72,25.46,28.41,16.4a49.1,49.1,0,0,0,11.09-9l11.59,2.12a1.91,1.91,0,0,0,2.12-2.59Z" style="fill:#455a64"></path></g><path d="M76.1,96.4l3.73-2.16a2.89,2.89,0,0,0,1.29-2.11l1.52-29.81c0-.78-.47-1.1-1.15-.71l-7,4.08a2.5,2.5,0,0,0-1.15,2.11L74.8,95.69A.8.8,0,0,0,76.1,96.4ZM78,99.11a9,9,0,0,0-3.8,7.26c0,2.47,1.43,4.24,3.8,2.87a9,9,0,0,0,3.8-7.26C81.76,99.51,80.34,97.74,78,99.11Z" style="fill:#BA68C8"></path><path d="M76.1,96.4l3.73-2.16a2.89,2.89,0,0,0,1.29-2.11l1.52-29.81c0-.78-.47-1.1-1.15-.71l-7,4.08a2.5,2.5,0,0,0-1.15,2.11L74.8,95.69A.8.8,0,0,0,76.1,96.4ZM78,99.11a9,9,0,0,0-3.8,7.26c0,2.47,1.43,4.24,3.8,2.87a9,9,0,0,0,3.8-7.26C81.76,99.51,80.34,97.74,78,99.11Z" style="fill:#fff;opacity:0.2"></path></g></g><g id="freepik--Character--inject-8"><g id="freepik--character--inject-8"><g id="freepik--Bottom--inject-8"><path d="M158.6,423c.57-2.42-1.83-3.95-3-5.34-1.75-2.15-2.29-7.16-2.27-9.72,0-3.19-.36-5.47,1.62-8.35,2.35-3.41,5.62-7.41,16.57-17.2l-13.48-13.55c-2.83,4.43-9.95,19.94-9.95,19.94l-.47,1a17.44,17.44,0,0,1-4.25,4.06l-.75.39c-1.28.87-4.55,1.81-4.5,4.86s1.25,3.82,2.63,6.32a9,9,0,0,1,1.59,5.46c.06,2.46-.05,5.2-.07,7.4,0,1.85,1.69,4.55,5.25,5.75C152.75,425.76,158,425.4,158.6,423Z" style="fill:#ffbda7"></path><path d="M136.31,399.16a34.65,34.65,0,0,0-3.9,6.71l3.58,5,3-5.06A18.08,18.08,0,0,1,136.31,399.16Z" style="fill:#263238"></path><path d="M136,410.88l4.92-.33a4.19,4.19,0,0,0-.49-3,6.39,6.39,0,0,0-1.42-1.69Z"></path><path d="M137.29,398a3.5,3.5,0,0,0-.95,1,9,9,0,0,0,1.06,5.17c1,1.52,2.69,3.14,3.1,5.31s-.45,7.18.41,10.21,3.79,6.49,10.17,7.31c4.56.59,6.28-.28,7.81-1.23.55-2,.49-2.48-2-4.14S137.29,398,137.29,398Z" style="fill:#263238"></path><path d="M145.79,390c-2,2.43-2.78,3.37-4.66,4.46a8.53,8.53,0,0,0-3.84,3.55c-.46,2.62.07,3.71,2.49,7.07a9.83,9.83,0,0,1,2.15,7c-.06,3.83-1.36,7.32,3.3,11.23,3.63,3.05,11.57,3.25,13.72,1.14,1.85-5.22-3.06-4.95-4.18-10.48a24.85,24.85,0,0,1,.3-10.75,24.51,24.51,0,0,1,1.61-4c.76-1.3,1.44-2.25.82-2.93l-1.16,1.42a8.57,8.57,0,0,1-5.79-1.83c-4.44-3.57-2.9-6.1-2.9-6.1l.47-1C147.67,388.26,147,388.64,145.79,390Z" style="fill:#37474f"></path><path d="M196.18,269.29c1.12,7.54,3.73,15.86,5.74,33.71,1.9,16.74,2.74,25.47,1.54,33.79-.43,3-2,6.44-4.87,10.83C189.45,361.37,171.47,383,171.47,383s-4.07-.06-9-4a13.72,13.72,0,0,1-5-9.42s.48-3.14,8-15.81A67.07,67.07,0,0,0,174,327.4l-4.92-53.76C180.79,274.68,190.72,273.68,196.18,269.29Z" style="fill:#455a64"></path><path d="M162.46,379a13.72,13.72,0,0,1-5-9.42s.48-3.14,8-15.81A67.07,67.07,0,0,0,174,327.4l-3.76-41.16c9.15-1.41,21.93-1.29,21.93-1.29.24,5.88-1.06,13.18-9.54,17.57,0,0,1.56,28.94,1.76,37.41.15,6.46-1.73,22.91-2.63,30.35-5.71,7.23-10.29,12.73-10.29,12.73S167.4,383,162.46,379Z" style="fill:#37474f"></path><path d="M178,410l.06-1.3,1.27-26.43-18.59,4.64,4.13,21.19.14,1.1s.2,5.39,8.5,5.7C177.74,415,178,410,178,410Z" style="fill:#ffbda7"></path><polygon points="167.92 434.08 174.38 431.69 174.59 425.56 168.02 428.03 167.92 434.08"></polygon><path d="M161.64,420.33c-.26,2.25,1.59,10.91,1.59,10.91l4.69,2.84L168,428a12.44,12.44,0,0,1,2.68,4.31c1.3,3,3.08,5.93,6.15,7.46s8.37,2.15,12.87,1.57c3.21-.42,5.18-1.79,5.71-2.61a2.74,2.74,0,0,0,.19-1.27Z" style="fill:#263238"></path><path d="M178,408.68c.88-.07.81.77,1.9,5.84.82,3.79,2.59,10.33,9.49,14.64,2.84,1.77,6.77,2.9,6.2,8.33-2,2.63-8.84,3.33-13,2.6-8.3-1.46-9.54-4.74-11.62-9.63-1.66-3.92-3.13-4.34-5.35-5.9-1.46-1-3.46-2.54-4.05-4.23-.1-3.73,1.3-6.16,1.81-8s.2-3.94,1.39-4.21l.14,1.1s1.11,3,6.89,3.1S178,410,178,410Z" style="fill:#37474f"></path><path d="M196.18,269.29a50.17,50.17,0,0,1-2.71,17.47c-2.76,7.71-8.05,12.06-13.62,13.87,0,0,1.85,34.62,2.34,39.44s-.66,22.28-1.7,33.77-1.36,15.44-1.36,15.44-2.46,2.59-9.34,2.72-9-2.71-9-2.71-4.35-13.28-4.53-23.71c-.11-6,1.2-8.95.07-14.87S145.44,317.08,144,304.57s.68-24.3,9.58-37.09C163.17,273.72,187.46,275.43,196.18,269.29Z" style="fill:#455a64"></path><path d="M158.85,271.54c-4.82,6.66-11.77,20.37-6.84,40,1.4,5.59,2.8,11,4.15,16.2,3.17,12.21,5.67,21.86,6,25.54a28.77,28.77,0,0,1-.31,6.21,52.3,52.3,0,0,0,0,14.61c.87,6.28,2.12,12.89,3,17.37l-.82-.24c-.91-4.47-2.12-10.91-3-17a52.35,52.35,0,0,1,0-14.78,28.84,28.84,0,0,0,.31-6.07c-.34-3.62-2.83-13.24-6-25.42-1.35-5.22-2.75-10.61-4.16-16.2-5-19.79,2-33.67,6.86-40.48C158.36,271.36,158.6,271.45,158.85,271.54Z" style="fill:#37474f"></path></g><g id="freepik--Top--inject-8"><path d="M222,256.59c2.37,0,4.81-2,7.92-2.95s5.71-.73,7.85-1.41c.81.56.23,2.33-.86,3-1.67,1.08-4.15,1.65-3.62,2.34.77,1,4.08.62,5.09.5,3.09-.39,6.47-2,9.6-1a1.33,1.33,0,0,1,.83.54,1.1,1.1,0,0,1-.35,1.28,6.79,6.79,0,0,1-1.23.71,1.62,1.62,0,0,0-.9,1c-.07.43.16.87.07,1.29a1.53,1.53,0,0,1-.43.71,5.11,5.11,0,0,1-1.56,1.13,4.08,4.08,0,0,0-.8.49,10.72,10.72,0,0,0-1.95,1.64c-1.88,2.58-5.52,3.11-8.46,3.39-6.29.58-9-1-12.7-1.18s-13.83-.85-21.78-2.07c-8.33-1.27-9.17-4.14-10.94-11.09s-2.57-10.79-3.82-17.31a149.54,149.54,0,0,1-2.42-15.57c2.56,0,12.79-.37,16.55,11.58,2.15,6.86,5.23,17.77,5.23,17.77S219.62,256.65,222,256.59Z" style="fill:#ffbda7"></path><path d="M181.05,221.81s.78,7.86,2.12,15.08c1.82,9.79,3.38,16.78,4.36,21.05s2.48,6.77,6.86,7.9,17.76,2,17.76,2A15,15,0,0,1,212,261a16.23,16.23,0,0,1,2.16-6.4l-10.55-3.48s-3.29-12.35-5.66-19a16,16,0,0,0-5.48-7.64C188.31,221.58,181.05,221.81,181.05,221.81Z" style="fill:#ebebeb"></path><path d="M203.56,251.13c-2.69-.51-7.63,1.23-9.17,3.63.77-2.59,4.09-5.54,9.05-5.12Z" style="opacity:0.1"></path><path d="M150,182.6a6.69,6.69,0,0,0-3.53,4.11c-.68,2.53.44,5.37-.57,7.79S142.39,198,141,200a6.46,6.46,0,0,0-.39,6.51c1.18,2.27,2.38,4,1.1,6.69-.34.69-.8,1.31-1.11,2a5.62,5.62,0,0,0-.23,3.6,6.86,6.86,0,0,0,6.07,5c1.42.08,2.73-.15,4.07.44a12.57,12.57,0,0,0,3.47,1.32,11.05,11.05,0,0,0,7.9-2.2,5.82,5.82,0,0,0,2.43-3.25,15.67,15.67,0,0,0-.07-3.35c0-3.52,2.68-6.42,3.82-9.76a10.53,10.53,0,0,0-2.28-10.62c-.86-.86-1.89-1.55-2.74-2.43a5,5,0,0,1-1.6-3.4c0-1,.43-1.92.53-2.9a5.34,5.34,0,0,0-1.84-4.37C157.49,181,153.05,181.07,150,182.6Z" style="fill:#263238"></path><path d="M154.12,186.76a6.35,6.35,0,0,0-1.63,4.41,1.17,1.17,0,0,0,.16.55,1.14,1.14,0,0,0,1,.32,5.63,5.63,0,0,0,3.63-1.64c.95-1,2.39-3.61,1.3-4.93C157.35,184,155,185.72,154.12,186.76Z" style="fill:#BA68C8"></path><path d="M147.83,249.46s3.81-1.44,5.5-9.29c.77-3.57-.06-8.38-1.11-13.94,0,0,9-2.87,15.2-3.6a119.8,119.8,0,0,1,13.63-.82s12.34,6.57,16.88,13.76c2.48,3.93,4.69,12-.77,17.55-.09,5.38-1,16.26-1,16.26s-3.36,5-17.45,5.36c-20.2.52-25.13-7.26-25.13-7.26C153.71,261.71,149.45,255.15,147.83,249.46Z" style="fill:#f5f5f5"></path><path d="M184.09,255.07s-3.32,4.63-11,3.76-9.55-6.56-9.55-6.56-.05,7.46,9.18,8.46S184.09,255.07,184.09,255.07Z" style="fill:#ebebeb"></path><g id="freepik--Plant--inject-8"><g id="freepik--Pot--inject-8"><path d="M237.47,262.78H190.75l4.83,20.12h0c.36,2.43,2.15,4.79,5.37,6.65,7.26,4.2,19,4.2,26.31,0,3.46-2,5.25-4.59,5.41-7.21Z" style="fill:#37474f"></path><path d="M231.77,276.58a19.18,19.18,0,0,0,2.8-2l2.63-10.75a19,19,0,0,1-4.72,3.75c-9.86,5.69-25.66,5.84-35.85.47l1.19-4.8-.36-.5h-6.71l4.83,20.11h0c.36,2.43,2.15,4.79,5.37,6.65,5.17,3,12.63,3.84,19.13,2.57-11.64.87-19.63-4.22-20.83-8.91-.48-1.88-1.31-6-1.31-6C207.67,282.13,222.48,281.93,231.77,276.58Z" style="fill:#263238"></path><path d="M239.9,256.83a9.69,9.69,0,0,1-1.56,3.63,17.3,17.3,0,0,1-5.86,5.21c-10.15,5.85-26.59,5.85-36.73,0a17.11,17.11,0,0,1-5.86-5.21,9.69,9.69,0,0,1-1.56-3.63h0c-.91-4.4,1.57-9,7.42-12.36,10.14-5.86,26.58-5.86,36.73,0C238.32,247.84,240.8,252.43,239.9,256.83Z" style="fill:#455a64"></path><path d="M238.34,260.46a17.3,17.3,0,0,1-5.86,5.21c-10.15,5.85-26.59,5.85-36.73,0a17.11,17.11,0,0,1-5.86-5.21,9.69,9.69,0,0,1-1.56-3.63h0l1.15,7.92c.53,3.19,2.9,6.29,7.13,8.73,9.67,5.58,25.33,5.58,35,0,4.17-2.41,6.55-5.48,7.11-8.62l.06-.4,1.12-7.63A9.69,9.69,0,0,1,238.34,260.46Z" style="fill:#37474f"></path><path d="M229.42,246.23c-8.46-4.88-22.16-4.88-30.61,0-4.78,2.77-6.85,6.5-6.23,10.1.49,2.76,2.56,5.45,6.23,7.57,8.45,4.88,22.15,4.88,30.61,0,3.66-2.12,5.74-4.81,6.22-7.57C236.27,252.73,234.2,249,229.42,246.23Z" style="fill:#263238"></path><path d="M194,259.67a14.53,14.53,0,0,0,4.8,4.23c8.45,4.88,22.15,4.88,30.61,0a14.5,14.5,0,0,0,4.79-4.23c-.06-2.92-2-5.83-5.88-8.06-7.85-4.54-20.59-4.54-28.43,0C196,253.84,194.08,256.75,194,259.67Z" style="fill:#fafafa"></path></g><path d="M211,210.71c-2.13,2.31-8,2.94-10.5-3.29-2.29-5.85-4.77-11.39-5.48-13.53a2.21,2.21,0,0,1,1.41-2.86s.17-3.21,5.62-1,9.28,5.48,11.65,10.82S214.68,210,211,210.71Z" style="fill:#BA68C8"></path><path d="M214.86,223.32a34.61,34.61,0,0,0-.55-3.81,52,52,0,0,0-2.12-7.36,54.18,54.18,0,0,0-7.39-13.65,46.84,46.84,0,0,0-5.82-6.6c-.06-.06-.11.09-.07.14A58,58,0,0,1,208,204.61a58.7,58.7,0,0,1,5.26,14.27c.32,1.39.62,2.79.87,4.19s.41,2.86.65,4.28c0,.15.24.23.25,0A25.17,25.17,0,0,0,214.86,223.32Z" style="fill:#BA68C8"></path><path d="M214.86,223.32a34.61,34.61,0,0,0-.55-3.81,52,52,0,0,0-2.12-7.36,54.18,54.18,0,0,0-7.39-13.65,46.84,46.84,0,0,0-5.82-6.6c-.06-.06-.11.09-.07.14A58,58,0,0,1,208,204.61a58.7,58.7,0,0,1,5.26,14.27c.32,1.39.62,2.79.87,4.19s.41,2.86.65,4.28c0,.15.24.23.25,0A25.17,25.17,0,0,0,214.86,223.32Z" style="opacity:0.30000000000000004"></path><path d="M217,211.76c-5.74,1.77-10-2.7-8.52-9.72s8.84-14.81,11.63-12.72c1.74-1.73,5.57-1.11,7.37,4.59S227.64,214.25,217,211.76Z" style="fill:#BA68C8"></path><path d="M217,211.76c-5.74,1.77-10-2.7-8.52-9.72s8.84-14.81,11.63-12.72c1.74-1.73,5.57-1.11,7.37,4.59S227.64,214.25,217,211.76Z" style="fill:#fff;opacity:0.25"></path><path d="M220.36,193.59a77,77,0,0,0-3.81,12.61,122.79,122.79,0,0,0-2.21,13.2,205.22,205.22,0,0,0-1.15,25.88c0,2.39.05,4.77.09,7.16s0,4.94.22,7.39c.08.94,1.41.69,1.43-.17.09-4.3-.15-8.62-.19-12.92s0-8.5.08-12.75a179,179,0,0,1,2.32-25.84c.41-2.38.86-4.75,1.41-7.1s1.3-4.91,1.95-7.36C220.53,193.59,220.42,193.46,220.36,193.59Z" style="fill:#BA68C8"></path><path d="M220.36,193.59a77,77,0,0,0-3.81,12.61,122.79,122.79,0,0,0-2.21,13.2,205.22,205.22,0,0,0-1.15,25.88c0,2.39.05,4.77.09,7.16s0,4.94.22,7.39c.08.94,1.41.69,1.43-.17.09-4.3-.15-8.62-.19-12.92s0-8.5.08-12.75a179,179,0,0,1,2.32-25.84c.41-2.38.86-4.75,1.41-7.1s1.3-4.91,1.95-7.36C220.53,193.59,220.42,193.46,220.36,193.59Z" style="opacity:0.30000000000000004"></path><path d="M207,228.05c-.86,2.88-5.08,4.62-9.54,2.27s-12.5-15.29-8.19-16.23c0-2.21,12.8-2.83,18.34,5.47C211.58,225.6,207,228.05,207,228.05Z" style="fill:#BA68C8"></path><path d="M207,228.05c-.86,2.88-5.08,4.62-9.54,2.27s-12.5-15.29-8.19-16.23c0-2.21,12.8-2.83,18.34,5.47C211.58,225.6,207,228.05,207,228.05Z" style="fill:#fff;opacity:0.25"></path><path d="M213.18,233a21.66,21.66,0,0,0-1.69-2.25c-1.23-1.47-2.54-2.87-3.91-4.21a56.91,56.91,0,0,0-9.21-7.22,51.16,51.16,0,0,0-5.66-3.25c-.06,0-.05.09,0,.11,1.61,1,3.23,1.89,4.78,3a55.21,55.21,0,0,1,4.63,3.56,71.72,71.72,0,0,1,8,7.89c.7.81,1.35,1.65,2.05,2.44s1.53,1.61,2.22,2.47c.11.12.31.09.2-.09C214.1,234.64,213.68,233.82,213.18,233Z" style="fill:#BA68C8"></path><path d="M213.18,233a21.66,21.66,0,0,0-1.69-2.25c-1.23-1.47-2.54-2.87-3.91-4.21a56.91,56.91,0,0,0-9.21-7.22,51.16,51.16,0,0,0-5.66-3.25c-.06,0-.05.09,0,.11,1.61,1,3.23,1.89,4.78,3a55.21,55.21,0,0,1,4.63,3.56,71.72,71.72,0,0,1,8,7.89c.7.81,1.35,1.65,2.05,2.44s1.53,1.61,2.22,2.47c.11.12.31.09.2-.09C214.1,234.64,213.68,233.82,213.18,233Z" style="opacity:0.30000000000000004"></path><path d="M218.87,224.94c-3.26-1.79-2.24-6,3.57-9.91s17.42-3,17.33-.7c2.43.69.26,8.33-7.13,13.8S217.85,229.74,218.87,224.94Z" style="fill:#BA68C8"></path><path d="M227.81,219.41a29.58,29.58,0,0,0-7.65,4,29.25,29.25,0,0,0-6.13,6.14c-.2.26.19.85.41.56a33.31,33.31,0,0,1,13.37-10.63S227.87,219.4,227.81,219.41Z" style="fill:#BA68C8"></path><path d="M227.81,219.41a29.58,29.58,0,0,0-7.65,4,29.25,29.25,0,0,0-6.13,6.14c-.2.26.19.85.41.56a33.31,33.31,0,0,1,13.37-10.63S227.87,219.4,227.81,219.41Z" style="opacity:0.30000000000000004"></path></g><g id="freepik--Head--inject-8"><path d="M157.75,183.45a9.63,9.63,0,0,1,2.05-2.36,10.15,10.15,0,0,1,5-2.14,15.18,15.18,0,0,1,3.09,0,11.71,11.71,0,0,0,3.55-.65,14.77,14.77,0,0,1,6.73-.41,8.41,8.41,0,0,1,5.54,3.62c.78,1.28,1,3.11,2.09,4.21a30.69,30.69,0,0,1,3.14,3.11c2.16,3,1.34,6.59-.63,9.38a12.06,12.06,0,0,1-6.6,4.72,8.18,8.18,0,0,1-13.13,7.25,31.69,31.69,0,0,1-7.31,6c.29-.17-1.1-3-1.33-3.32-.74-.9-1.49-1.78-2.2-2.72a46.84,46.84,0,0,1-4.48-6.7c-1.72-3.38-2.49-7.52-.86-10.94a5.75,5.75,0,0,1,3.8-3.33A10,10,0,0,1,157.75,183.45Z" style="fill:#263238"></path><path d="M155.83,200.85c2-.72,3.67.05,4.69,2.16.89,1.84,2.86,1.24,2.46-1.6,4.55-4.16-.59-7,3.18-11,2.35-2.52,7.25-1.74,9.18-.09a4.81,4.81,0,0,1,5.61-2.12c2.05.77,3.34,2,4.27,4.91s-.11,3.54.35,5.66a15.47,15.47,0,0,1,1,4.52c0,9.87-2.13,12.31-4.34,13.89-1.52,1.08-3.44,1.63-6.69,1.6l.07,4.3a22.18,22.18,0,0,1,4.29,11.73c-9.24-2.9-13.94-6.33-19.2-10.75l-.17-14.31h0c-.48,1.11-2.79,2.3-5.06.37C152.56,207.65,152.29,202.11,155.83,200.85Z" style="fill:#ffbda7"></path><path d="M179.69,195.25l3.4.33a1.64,1.64,0,0,1-1.81,1.55A1.79,1.79,0,0,1,179.69,195.25Z" style="fill:#263238"></path><path d="M169.27,196.13l2.72-2.06a1.64,1.64,0,0,1-.27,2.36A1.8,1.8,0,0,1,169.27,196.13Z" style="fill:#263238"></path><polygon points="176.05 197.9 176.62 206.75 181.53 205.19 176.05 197.9" style="fill:#f0997a"></polygon><path d="M176.22,210.29A1.27,1.27,0,0,0,176,210a4.08,4.08,0,0,0-1.57-1.15,5,5,0,0,0-1.33-.34,3.18,3.18,0,0,0-.69,0c-.1,0-.55.08-.38.21a.83.83,0,0,0,.32.06l.38.08.71.2a9.46,9.46,0,0,1,1.35.58c.25.13.49.28.73.43a2.2,2.2,0,0,0,.67.37S176.23,210.31,176.22,210.29Z" style="fill:#b16668"></path><path d="M172.32,200.26a1.43,1.43,0,1,1-1.45-1.41A1.43,1.43,0,0,1,172.32,200.26Z" style="fill:#263238"></path><path d="M183.44,200.23a1.43,1.43,0,1,1-1.45-1.41A1.43,1.43,0,0,1,183.44,200.23Z" style="fill:#263238"></path><path d="M175.49,218.76c-3.16-.26-8.52-.55-11.05-4.15,0,0,.29,2.12,3.48,3.83,2.24,1.2,7.58,1.81,7.58,1.81Z" style="fill:#f0997a"></path></g><path d="M183,273c2.37,0,4.81-2,7.92-2.95s5.7-.73,7.84-1.41c.82.56.23,2.32-.85,3-1.67,1.09-4.15,1.65-3.63,2.34.78,1,4.09.63,5.1.5,3.09-.38,6.47-1.95,9.6-1a1.34,1.34,0,0,1,.83.55,1.08,1.08,0,0,1-.35,1.27,6.25,6.25,0,0,1-1.23.71,1.59,1.59,0,0,0-.9,1.05c-.07.43.16.87.07,1.3a1.64,1.64,0,0,1-.43.71,5,5,0,0,1-1.57,1.13,4,4,0,0,0-.79.49,10.34,10.34,0,0,0-1.95,1.64c-1.88,2.58-5.52,3.11-8.46,3.38-6.29.58-9-1-12.7-1.17s-19.2-1.94-27.15-3.16c-8.33-1.27-9.67-2.82-10.94-11.09-1.52-9.9-2.35-20.32-2.68-27-.52-10.14,6.23-15.92,11.37-16.38,1.61,1.68,4.47,10.72,5.09,24.16l1.76,15.65S180.58,273.07,183,273Z" style="fill:#ffbda7"></path><path d="M152.22,226.23c-4.79,1.81-8,2.78-10.59,8-1.7,3.48-1.63,10.49-1.12,17.82a179.6,179.6,0,0,0,2.61,21.22c1,4.26,2.44,7.11,6.82,8.23s24,2.59,24,2.59-1.69-2.33-1-6.67a16.23,16.23,0,0,1,2.16-6.4l-15.92-4.56s0-14.13-.68-20.11S155.3,230.54,152.22,226.23Z" style="fill:#ebebeb"></path><path d="M159.15,266.47c-2.69-.51-7.63,1.23-9.17,3.63.77-2.6,4.09-5.54,9.05-5.12Z" style="opacity:0.1"></path></g></g></g></svg>